<svg width="840" height="49" viewBox="0 0 840 49" fill="none" xmlns="http://www.w3.org/2000/svg">
<g clip-path="url(#clip0_915_3660)">
<path fill-rule="evenodd" clip-rule="evenodd" d="M32.5124 27.7379C32.1492 28.2865 31.8737 28.9617 31.1361 28.9617C29.8941 28.9617 29.8274 27.0486 28.5844 27.0486C27.3422 27.0486 27.4097 28.9617 26.1681 28.9617C24.9259 28.9617 24.8594 27.0486 23.6164 27.0486C22.3742 27.0486 22.4415 28.9617 21.2001 28.9617C19.9579 28.9617 19.8914 27.0486 18.6492 27.0486C17.4062 27.0486 17.4735 28.9617 16.2323 28.9617C15.8417 28.9617 15.5678 28.7727 15.3364 28.5135C14.448 26.9687 13.9367 25.1582 13.9367 23.2223C13.9367 17.5557 18.318 12.9619 23.7225 12.9619C29.1272 12.9619 33.5085 17.5557 33.5085 23.2225C33.5085 24.8425 33.1504 26.3755 32.5124 27.7379Z" fill="#FB70A9"/>
<path fill-rule="evenodd" clip-rule="evenodd" d="M19.8145 26.725V30.9752C19.8145 31.7376 19.1956 32.3558 18.4324 32.3558C18.251 32.3559 18.0713 32.3203 17.9037 32.251C17.736 32.1817 17.5837 32.08 17.4553 31.9518C17.327 31.8236 17.2251 31.6713 17.1557 31.5037C17.0862 31.3361 17.0504 31.1565 17.0504 30.975V25.8447C17.3082 25.3716 17.6026 24.9621 18.1341 24.9621C18.9985 24.9621 19.3009 26.0477 19.8145 26.7252V26.725ZM25.0351 26.9468V33.6675C25.035 33.8691 24.9953 34.0686 24.9181 34.2548C24.8409 34.441 24.7279 34.6101 24.5853 34.7526C24.4428 34.8951 24.2736 35.0081 24.0873 35.0852C23.9011 35.1623 23.7015 35.2019 23.5 35.2019C22.6519 35.2019 21.9642 34.5149 21.9642 33.6675V26.0607C22.2535 25.5032 22.5514 24.9619 23.1623 24.9619C24.1298 24.9619 24.3929 26.3198 25.0353 26.9468H25.0351ZM29.9496 26.823V31.7024C29.9496 32.4649 29.3309 33.0831 28.5678 33.0831C27.8044 33.0831 27.1855 32.4649 27.1855 31.7024V25.7054C27.4257 25.2938 27.7122 24.9619 28.1913 24.9619C29.0988 24.9619 29.3866 26.1582 29.9496 26.823Z" fill="#4E56A6"/>
<path fill-rule="evenodd" clip-rule="evenodd" d="M19.8145 28.0279C19.5691 27.7276 19.279 27.5048 18.8594 27.5048C17.8626 27.5048 17.6794 28.7603 17.0504 29.3258V23.9125C17.0504 23.7311 17.0862 23.5515 17.1556 23.3839C17.2251 23.2163 17.3269 23.064 17.4552 22.9358C17.5836 22.8076 17.7359 22.7059 17.9036 22.6366C18.0712 22.5672 18.2508 22.5316 18.4323 22.5317C19.1956 22.5317 19.8145 23.1499 19.8145 23.9125V28.0279ZM25.0351 28.1245C24.7737 27.7767 24.4683 27.505 24.0046 27.505C22.8957 27.505 22.7939 29.0584 21.9642 29.4884V27.094C21.9642 26.2465 22.6519 25.5597 23.5 25.5597C23.7016 25.5596 23.9012 25.5992 24.0874 25.6763C24.2736 25.7534 24.4429 25.8664 24.5854 26.0088C24.728 26.1513 24.8411 26.3205 24.9183 26.5067C24.9955 26.6929 25.0352 26.8924 25.0353 27.094L25.0351 28.1245ZM29.9496 27.8558C29.7366 27.6464 29.4846 27.505 29.1499 27.505C28.0756 27.505 27.9466 28.9632 27.1855 29.4443V24.5854C27.1855 24.2189 27.3311 23.8673 27.5903 23.6082C27.8495 23.349 28.201 23.2034 28.5676 23.2034C28.9341 23.2034 29.2857 23.349 29.5448 23.6082C29.804 23.8673 29.9496 24.2189 29.9496 24.5854V27.8558Z" fill="black" fill-opacity="0.298039"/>
<path fill-rule="evenodd" clip-rule="evenodd" d="M32.5124 27.7379C32.1492 28.2865 31.8737 28.9617 31.1361 28.9617C29.8941 28.9617 29.8274 27.0486 28.5844 27.0486C27.3422 27.0486 27.4097 28.9617 26.1681 28.9617C24.9259 28.9617 24.8594 27.0486 23.6164 27.0486C22.3742 27.0486 22.4415 28.9617 21.2001 28.9617C19.9579 28.9617 19.8914 27.0486 18.6492 27.0486C17.4062 27.0486 17.4735 28.9617 16.2323 28.9617C15.8417 28.9617 15.5678 28.7727 15.3364 28.5135C14.448 26.9687 13.9367 25.1582 13.9367 23.2223C13.9367 17.5557 18.318 12.9619 23.7225 12.9619C29.1272 12.9619 33.5085 17.5557 33.5085 23.2225C33.5085 24.8425 33.1504 26.3755 32.5124 27.7379Z" fill="#FB70A9"/>
<path fill-rule="evenodd" clip-rule="evenodd" d="M30.3949 28.757C32.9592 24.9448 33.0252 20.7172 30.5935 16.0723C32.3959 17.918 33.5086 20.45 33.5086 23.2441C33.5086 24.8585 33.1373 26.3848 32.4758 27.7426C32.1001 28.2883 31.8137 28.9614 31.0489 28.9614C30.8149 28.9636 30.5861 28.8921 30.3949 28.757Z" fill="#E24CA6"/>
<path fill-rule="evenodd" clip-rule="evenodd" d="M23.1981 25.7824C26.6012 25.7824 28.0337 23.8099 28.0337 21.0087C28.0337 18.207 25.8687 15.6289 23.1981 15.6289C20.5272 15.6289 18.3621 18.207 18.3621 21.0085C18.3621 23.8101 19.7944 25.7824 23.1981 25.7824Z" fill="white"/>
<path fill-rule="evenodd" clip-rule="evenodd" d="M23.7109 19.1672C23.7109 20.2716 22.8987 21.1675 21.8974 21.1675C20.8954 21.1675 20.0839 20.2718 20.0839 19.1672C20.0839 18.0629 20.8954 17.167 21.8974 17.167C22.8987 17.167 23.7109 18.0627 23.7109 19.1672Z" fill="#030776"/>
<path fill-rule="evenodd" clip-rule="evenodd" d="M22.5018 18.7056C22.5018 19.2154 22.096 19.6285 21.595 19.6285C21.094 19.6285 20.6883 19.2154 20.6883 18.7056C20.6883 18.1958 21.094 17.7827 21.595 17.7827C22.096 17.7827 22.5018 18.1958 22.5018 18.7056Z" fill="white"/>
</g>
<g clip-path="url(#clip1_915_3660)">
<path d="M102.531 12.0728H89.7812C86.6746 12.0728 84.1562 14.5912 84.1562 17.6978V30.4478C84.1562 33.5544 86.6746 36.0728 89.7812 36.0728H102.531C105.638 36.0728 108.156 33.5544 108.156 30.4478V17.6978C108.156 14.5912 105.638 12.0728 102.531 12.0728Z" fill="#00B4E0"/>
<path d="M87.9531 22.6887C87.9156 22.6887 87.9062 22.6699 87.925 22.6418L88.1219 22.3887C88.1406 22.3605 88.1875 22.3418 88.225 22.3418H91.5719C91.6094 22.3418 91.6187 22.3699 91.6 22.398L91.4406 22.6418C91.4219 22.6699 91.375 22.698 91.3469 22.698L87.9531 22.6887Z" fill="white"/>
<path d="M86.5375 23.551C86.5 23.551 86.4906 23.5322 86.5094 23.5041L86.7063 23.251C86.725 23.2229 86.7719 23.2041 86.8094 23.2041H91.0844C91.1219 23.2041 91.1406 23.2322 91.1313 23.2604L91.0563 23.4854C91.0469 23.5229 91.0094 23.5416 90.9719 23.5416L86.5375 23.551Z" fill="white"/>
<path d="M88.8062 24.4133C88.7687 24.4133 88.7594 24.3852 88.7781 24.357L88.9094 24.1227C88.9281 24.0945 88.9656 24.0664 89.0031 24.0664H90.8781C90.9156 24.0664 90.9344 24.0945 90.9344 24.132L90.9156 24.357C90.9156 24.3945 90.8781 24.4227 90.85 24.4227L88.8062 24.4133Z" fill="white"/>
<path d="M98.5375 22.5197C97.9469 22.6697 97.5438 22.7822 96.9625 22.9322C96.8219 22.9697 96.8125 22.9791 96.6906 22.8384C96.55 22.6791 96.4469 22.5759 96.25 22.4822C95.6594 22.1916 95.0875 22.2759 94.5531 22.6228C93.9156 23.0353 93.5875 23.6447 93.5969 24.4041C93.6063 25.1541 94.1219 25.7728 94.8625 25.8759C95.5 25.9603 96.0344 25.7353 96.4563 25.2572C96.5406 25.1541 96.6156 25.0416 96.7094 24.9103C96.3719 24.9103 95.95 24.9103 94.9 24.9103C94.7031 24.9103 94.6563 24.7884 94.7219 24.6291C94.8438 24.3384 95.0688 23.8509 95.2 23.6072C95.2281 23.5509 95.2938 23.4572 95.4344 23.4572C95.9125 23.4572 97.675 23.4572 98.8469 23.4572C98.8281 23.7103 98.8281 23.9634 98.7906 24.2166C98.6875 24.8916 98.4344 25.5103 98.0219 26.0541C97.3469 26.9447 96.4656 27.4978 95.35 27.6478C94.4313 27.7697 93.5781 27.5916 92.8281 27.0291C92.1344 26.5041 91.7406 25.8103 91.6375 24.9478C91.5156 23.9259 91.8156 23.0072 92.4344 22.2009C93.1 21.3291 93.9813 20.776 95.0594 20.5791C95.9406 20.4197 96.7844 20.5228 97.5438 21.0385C98.0406 21.3666 98.3969 21.8166 98.6313 22.3603C98.6875 22.4447 98.65 22.4916 98.5375 22.5197Z" fill="white"/>
<path d="M101.641 27.7042C100.787 27.6854 100.009 27.4417 99.3531 26.8792C98.8 26.401 98.4531 25.7917 98.3406 25.0698C98.1719 24.0104 98.4625 23.0729 99.1 22.2385C99.7844 21.3386 100.609 20.8698 101.725 20.673C102.681 20.5042 103.581 20.598 104.397 21.1511C105.137 21.6573 105.597 22.3417 105.719 23.2417C105.878 24.5073 105.512 25.5385 104.641 26.4198C104.022 27.0479 103.262 27.4417 102.391 27.6198C102.137 27.6667 101.884 27.676 101.641 27.7042ZM103.872 23.9167C103.862 23.7948 103.862 23.701 103.844 23.6073C103.675 22.6792 102.822 22.1542 101.931 22.3604C101.059 22.5573 100.497 23.1104 100.291 23.9917C100.122 24.7229 100.478 25.4635 101.153 25.7635C101.669 25.9885 102.184 25.9604 102.681 25.7073C103.422 25.3229 103.825 24.7229 103.872 23.9167Z" fill="white"/>
</g>
<g clip-path="url(#clip2_915_3660)">
<path d="M168.055 12.0796C161.977 12.0796 162.356 14.7257 162.356 14.7257L162.363 17.4671H168.163V18.2902H160.059C160.059 18.2902 156.17 17.8474 156.17 24.0042C156.17 30.161 159.564 29.9427 159.564 29.9427H161.59V27.0857C161.59 27.0857 161.481 23.6777 164.931 23.6777H170.684C170.684 23.6777 173.916 23.7301 173.916 20.5418V15.2699C173.916 15.2699 174.406 12.0796 168.055 12.0796ZM164.856 13.923C165.433 13.923 165.9 14.3913 165.9 14.9706C165.9 15.5499 165.433 16.0182 164.856 16.0182C164.279 16.0182 163.813 15.5499 163.813 14.9706C163.813 14.3913 164.279 13.923 164.856 13.923Z" fill="url(#paint0_linear_915_3660)"/>
<path d="M168.227 35.9905C174.305 35.9905 173.926 33.3444 173.926 33.3444L173.919 30.603H168.119V29.7799H176.223C176.223 29.7799 180.112 30.2228 180.112 24.0659C180.112 17.9091 176.717 18.1274 176.717 18.1274H174.691V20.9844C174.691 20.9844 174.801 24.3924 171.351 24.3924H165.598C165.598 24.3924 162.366 24.34 162.366 27.5283V32.8002C162.366 32.8002 161.875 35.9905 168.227 35.9905ZM171.425 34.1471C170.848 34.1471 170.382 33.6788 170.382 33.0995C170.382 32.5202 170.848 32.0519 171.425 32.0519C172.003 32.0519 172.469 32.5202 172.469 33.0995C172.469 33.6788 172.003 34.1471 171.425 34.1471Z" fill="url(#paint1_linear_915_3660)"/>
</g>
<g clip-path="url(#clip3_915_3660)">
<path d="M246.109 29.7719C246.266 28.4471 246.219 28.2529 247.196 28.4674L247.444 28.4895C248.194 28.524 249.177 28.3674 249.754 28.0965C250.996 27.5141 251.732 26.5417 250.508 26.7972C247.714 27.3796 247.522 26.4236 247.522 26.4236C250.472 22.0003 251.705 16.3853 250.641 15.0109C247.737 11.2619 242.711 13.0347 242.627 13.0807L242.601 13.0857C242.048 12.97 241.431 12.9008 240.737 12.8895C239.472 12.8685 238.513 13.2244 237.785 13.7822C237.785 13.7822 228.82 10.0496 229.237 18.4764C229.326 20.269 231.78 32.0408 234.706 28.4852C235.776 27.185 236.81 26.0857 236.81 26.0857C237.323 26.4303 237.938 26.6061 238.583 26.543L238.633 26.5C238.617 26.6615 238.624 26.8194 238.652 27.0063C237.899 27.8576 238.12 28.0071 236.613 28.3207C235.087 28.6383 235.983 29.2038 236.568 29.3516C237.278 29.5309 238.918 29.7847 240.027 28.2164L239.983 28.3954C240.279 28.6345 240.259 30.1141 240.301 31.1712C240.343 32.2284 240.413 33.2149 240.626 33.7965C240.839 34.378 241.091 35.8762 243.072 35.4471C244.728 35.0885 245.994 34.5725 246.109 29.7719Z" fill="black" stroke="black" stroke-width="2.68679"/>
<path d="M250.508 26.7972C247.714 27.3796 247.522 26.4236 247.522 26.4236C250.472 22 251.705 16.3849 250.641 15.0106C247.737 11.2619 242.711 13.0348 242.628 13.0808L242.601 13.0857C242.049 12.9699 241.431 12.9009 240.736 12.8895C239.472 12.8685 238.513 13.2244 237.785 13.7821C237.785 13.7821 228.82 10.0496 229.237 18.4763C229.325 20.2691 231.779 32.0409 234.706 28.4853C235.776 27.1851 236.81 26.0858 236.81 26.0858C237.323 26.4304 237.938 26.6062 238.582 26.5431L238.632 26.5001C238.617 26.6616 238.624 26.8195 238.652 27.0064C237.898 27.8577 238.12 28.0072 236.612 28.3207C235.087 28.6384 235.983 29.2039 236.568 29.3517C237.277 29.5309 238.918 29.7848 240.027 28.2165L239.983 28.3955C240.278 28.6346 240.486 29.9509 240.451 31.1442C240.416 32.3374 240.393 33.1567 240.626 33.7966C240.858 34.4365 241.09 35.8763 243.072 35.4472C244.728 35.0886 245.586 34.1594 245.705 32.6095C245.79 31.5076 245.982 31.6704 245.994 30.6853L246.147 30.2189C246.325 28.7252 246.176 28.2433 247.196 28.4674L247.444 28.4894C248.194 28.5239 249.177 28.3674 249.754 28.0965C250.996 27.5141 251.732 26.5417 250.508 26.7972H250.508Z" fill="#336791"/>
<path d="M240.147 27.6535C240.07 30.4329 240.166 33.2317 240.435 33.9119C240.705 34.5921 241.281 35.9151 243.263 35.4861C244.918 35.1274 245.521 34.4333 245.782 32.9012C245.975 31.774 246.346 28.6434 246.393 28.002M237.772 13.7201C237.772 13.7201 228.8 10.0145 229.217 18.4413C229.305 20.234 231.76 32.0062 234.687 28.4504C235.756 27.1501 236.724 26.1302 236.724 26.1302M242.618 13.0438C242.307 13.1422 247.608 11.0854 250.621 14.9757C251.685 16.35 250.452 21.9651 247.502 26.3888" stroke="white" stroke-width="0.895596" stroke-linecap="round" stroke-linejoin="round"/>
<path d="M247.502 26.3888C247.502 26.3888 247.694 27.3451 250.488 26.7623C251.713 26.5067 250.976 27.4793 249.734 28.062C248.715 28.5399 246.431 28.6624 246.393 28.002C246.297 26.2981 247.596 26.8157 247.502 26.3888ZM247.502 26.3888C247.417 26.0043 246.837 25.6269 246.453 24.6859C246.117 23.8645 241.854 17.5657 247.635 18.5012C247.847 18.4569 246.127 12.944 240.717 12.8544C235.307 12.7648 235.485 19.5768 235.485 19.5768" stroke="white" stroke-width="0.895596" stroke-linecap="round" stroke-linejoin="bevel"/>
<path d="M238.633 26.9714C237.878 27.8227 238.1 27.9721 236.593 28.2858C235.067 28.6035 235.964 29.1689 236.548 29.3167C237.258 29.496 238.898 29.7499 240.007 28.1812C240.345 27.7036 240.005 26.9415 239.541 26.7472C239.317 26.6534 239.018 26.5359 238.633 26.9714Z" stroke="white" stroke-width="0.895596" stroke-linecap="round" stroke-linejoin="round"/>
<path d="M238.583 26.9566C238.507 26.4561 238.746 25.8605 239.002 25.1637C239.386 24.1182 240.273 23.0725 239.564 19.756C239.035 17.2846 235.487 19.2417 235.485 19.5768C235.482 19.9118 235.645 21.2753 235.425 22.8632C235.139 24.9352 236.73 26.6875 238.563 26.5083" stroke="white" stroke-width="0.895596" stroke-linecap="round" stroke-linejoin="round"/>
<path d="M237.739 19.5267C237.723 19.6411 237.946 19.9465 238.238 19.9873C238.528 20.0283 238.777 19.7897 238.793 19.6753C238.809 19.5609 238.586 19.4348 238.294 19.3938C238.003 19.3528 237.754 19.4125 237.739 19.5267H237.739Z" fill="white" stroke="white" stroke-width="0.29853"/>
<path d="M246.594 19.2933C246.61 19.4077 246.387 19.7131 246.096 19.7539C245.805 19.7949 245.556 19.5562 245.54 19.4419C245.525 19.3274 245.748 19.2014 246.039 19.1604C246.33 19.1194 246.579 19.1791 246.594 19.2933V19.2933Z" fill="white" stroke="white" stroke-width="0.149265"/>
<path d="M247.635 18.501C247.683 19.3987 247.444 20.0102 247.414 20.9659C247.369 22.3551 248.069 23.9451 247.014 25.537" stroke="white" stroke-width="0.895596" stroke-linecap="round" stroke-linejoin="round"/>
</g>
<g clip-path="url(#clip4_915_3660)">
<path d="M309.823 14.2962V15.0206H311.775V17.2395H312.538V15.0207H314.538V14.2962H312.538V12.0728H311.775V14.2961L309.823 14.2962Z" fill="#7099A6"/>
<path d="M302.441 17.6247V18.6391H305.395V21.9221H306.491V18.639H309.49V17.6246H306.491V14.3916H305.395V17.6248L302.441 17.6247Z" fill="#EB912C"/>
<path d="M314.822 17.6243V18.6885H317.777V21.9217H318.917V18.6885H321.872V17.6243H318.917V14.3911H317.777V17.6243H314.822Z" fill="#59879B"/>
<path d="M308.204 23.3258V24.6751H311.491V28.2978H312.822V24.6752H316.109V23.3258H312.822V19.7031H311.491V23.3258H308.204Z" fill="#E8762C"/>
<path d="M319.157 23.5656V24.4847H321.157V26.7534H322.156V24.4847H324.156V23.5656H322.156V21.2969H321.157V23.5656H319.157Z" fill="#5B6591"/>
<path d="M300.156 23.6154V24.3852H302.108V26.5589H302.871V24.3851L304.872 24.3127V23.6154H302.871V21.4419H302.108V23.6154H300.156Z" fill="#7099A6"/>
<path d="M302.441 29.262V30.3262H305.395V33.5594H306.536V30.3262H309.49V29.262H306.536V26.0288H305.396V29.262H302.441Z" fill="#C72035"/>
<path d="M314.822 29.262V30.2764H317.777V33.5594H318.917V30.2764H321.872V29.262H318.917V26.0288H317.777V29.262H314.822Z" fill="#1F447E"/>
<path d="M309.681 32.8849V33.8041H311.681V36.0728H312.68V33.8041H314.68V32.8849H312.68V30.6162H311.682V32.8849H309.681Z" fill="#5B6591"/>
</g>
<g clip-path="url(#clip5_915_3660)">
<path d="M384.105 12.0728C383.324 12.0731 382.607 12.5005 382.24 13.1842C381.873 13.868 381.915 14.6968 382.351 15.3397L383.254 14.4453C383.224 14.3561 383.209 14.2626 383.21 14.1686C383.21 13.6802 383.609 13.2843 384.101 13.2843C384.594 13.2843 384.993 13.6802 384.993 14.1686C384.993 14.657 384.594 15.053 384.101 15.053C384.007 15.0532 383.913 15.0382 383.824 15.0087L382.922 15.9032C383.673 16.4084 384.665 16.3816 385.387 15.8367C386.11 15.2918 386.401 14.3504 386.11 13.4977C385.82 12.6451 385.013 12.0716 384.105 12.0728Z" fill="#34A853"/>
<path d="M383.264 18.181C383.266 17.473 383.035 16.7838 382.606 16.2178L381.434 17.3788C381.8 18.0436 381.669 18.8699 381.113 19.39L381.75 20.9338C382.694 20.331 383.264 19.2942 383.264 18.181Z" fill="#FBBC04"/>
<path d="M379.99 19.8472H379.959C379.24 19.8473 378.601 19.3942 378.368 18.7197C378.135 18.0452 378.36 17.2986 378.929 16.8618C379.497 16.4249 380.282 16.3946 380.882 16.7862L382.043 15.6353C380.915 14.728 379.321 14.658 378.116 15.4628C376.911 16.2676 376.378 17.7584 376.801 19.1365C377.225 20.5146 378.506 21.4566 379.959 21.458C380.183 21.4581 380.407 21.4361 380.626 21.3923L379.99 19.8472Z" fill="#EA4335"/>
<path d="M384.15 21.1824C383.416 21.1817 382.687 21.2877 381.984 21.497L382.913 23.747C383.317 23.6476 383.732 23.5976 384.148 23.5979C386.562 23.5986 388.638 25.2897 389.108 27.637C389.579 29.9843 388.312 32.3342 386.082 33.2497C383.852 34.1652 381.281 33.3913 379.941 31.4013C378.6 29.4113 378.864 26.7594 380.57 25.0672C380.926 24.7151 381.333 24.4172 381.777 24.1828L380.858 21.9392C377.435 23.602 375.814 27.5474 377.091 31.1096C378.368 34.6718 382.136 36.7171 385.85 35.8636C389.563 35.0101 392.04 31.5293 391.607 27.7732C391.174 24.0171 387.968 21.181 384.156 21.1812L384.15 21.1824Z" fill="#4285F4"/>
</g>
<g clip-path="url(#clip6_915_3660)">
<mask id="mask0_915_3660" style="mask-type:luminance" maskUnits="userSpaceOnUse" x="444" y="12" width="25" height="25">
<path d="M444.156 12.0728H468.156V36.0728H444.156V12.0728Z" fill="white"/>
</mask>
<g mask="url(#mask0_915_3660)">
<mask id="mask1_915_3660" style="mask-type:alpha" maskUnits="userSpaceOnUse" x="447" y="12" width="19" height="25">
<path d="M457.156 13.0728C457.156 12.8075 457.262 12.5532 457.449 12.3656C457.637 12.1781 457.891 12.0728 458.156 12.0728H464.156C464.421 12.0728 464.676 12.1781 464.863 12.3656C465.051 12.5532 465.156 12.8075 465.156 13.0728V35.0728C465.156 35.338 465.051 35.5923 464.863 35.7799C464.676 35.9674 464.421 36.0728 464.156 36.0728H448.156C447.891 36.0728 447.637 35.9674 447.449 35.7799C447.262 35.5923 447.156 35.338 447.156 35.0728V25.0728C447.156 24.8075 447.262 24.5532 447.449 24.3656C447.637 24.1781 447.891 24.0728 448.156 24.0728H452.156V19.0728C452.156 18.8075 452.262 18.5532 452.449 18.3656C452.637 18.1781 452.891 18.0728 453.156 18.0728H457.156V13.0728Z" fill="white"/>
</mask>
<g mask="url(#mask1_915_3660)">
<path d="M465.156 12.0728V36.0728H457.156V12.0728H465.156Z" fill="url(#paint2_linear_915_3660)"/>
<g filter="url(#filter0_f_915_3660)">
<path d="M460.156 19.1729V36.1729H452.156V18.1729H459.156C459.421 18.1729 459.676 18.2782 459.863 18.4657C460.051 18.6533 460.156 18.9076 460.156 19.1729Z" fill="black" fill-opacity="0.2"/>
</g>
<g filter="url(#filter1_f_915_3660)">
<path d="M460.156 19.5728V36.5728H452.156V18.5728H459.156C459.421 18.5728 459.676 18.6781 459.863 18.8656C460.051 19.0532 460.156 19.3075 460.156 19.5728Z" fill="black" fill-opacity="0.18"/>
</g>
<path d="M460.156 19.0728V36.0728H452.156V18.0728H459.156C459.421 18.0728 459.676 18.1781 459.863 18.3656C460.051 18.5532 460.156 18.8075 460.156 19.0728Z" fill="url(#paint3_linear_915_3660)"/>
<path d="M447.156 24.0728V36.0728H455.156V25.0728C455.156 24.8075 455.051 24.5532 454.863 24.3656C454.676 24.1781 454.421 24.0728 454.156 24.0728H447.156Z" fill="url(#paint4_linear_915_3660)"/>
</g>
</g>
</g>
<path fill-rule="evenodd" clip-rule="evenodd" d="M537.742 15.3767H530.144V13.5864L517.656 15.5139V32.4092L530.144 34.5602V31.9067H537.742C537.972 31.9183 538.197 31.8384 538.369 31.6844C538.54 31.5303 538.643 31.3147 538.656 31.0847V16.1979C538.643 15.968 538.54 15.7526 538.369 15.5987C538.197 15.4448 537.972 15.365 537.742 15.3767ZM537.862 31.2212H530.119L530.106 29.8044H531.972V28.1544H530.092L530.083 27.1794H531.972V25.5294H530.069L530.06 24.5544H531.972V22.9044H530.054V21.9294H531.972V20.2794H530.054V19.3044H531.972V17.6544H530.054V16.1544H537.862V31.2212Z" fill="#20744A"/>
<path d="M536.264 17.6519H533.021V19.3019H536.264V17.6519Z" fill="#20744A"/>
<path d="M536.264 20.2778H533.021V21.9278H536.264V20.2778Z" fill="#20744A"/>
<path d="M536.264 22.9033H533.021V24.5533H536.264V22.9033Z" fill="#20744A"/>
<path d="M536.264 25.5293H533.021V27.1793H536.264V25.5293Z" fill="#20744A"/>
<path d="M536.264 28.1548H533.021V29.8048H536.264V28.1548Z" fill="#20744A"/>
<path fill-rule="evenodd" clip-rule="evenodd" d="M520.917 20.0776L522.526 19.9853L523.538 22.7671L524.733 19.8706L526.343 19.7783L524.388 23.7278L526.343 27.6871L524.641 27.5723L523.492 24.5543L522.342 27.4576L520.779 27.3196L522.595 23.8223L520.917 20.0776Z" fill="white"/>
<g clip-path="url(#clip7_915_3660)">
<path d="M606.531 12.0728H593.781C590.675 12.0728 588.156 14.5912 588.156 17.6978V30.4478C588.156 33.5544 590.675 36.0728 593.781 36.0728H606.531C609.638 36.0728 612.156 33.5544 612.156 30.4478V17.6978C612.156 14.5912 609.638 12.0728 606.531 12.0728Z" fill="#330000"/>
<path d="M599.756 26.3542H596.036L595.276 28.7042C595.256 28.7942 595.176 28.8542 595.086 28.8442H593.206C593.096 28.8442 593.066 28.7842 593.096 28.6642L596.316 19.3942C596.346 19.2942 596.376 19.1842 596.416 19.0642C596.456 18.8542 596.476 18.6342 596.476 18.4142C596.466 18.3642 596.506 18.3142 596.556 18.3042H596.586H599.146C599.226 18.3042 599.266 18.3342 599.276 18.3842L602.926 28.6842C602.956 28.7942 602.926 28.8442 602.826 28.8442H600.736C600.666 28.8542 600.596 28.8042 600.576 28.7342L599.756 26.3542ZM596.616 24.3242H599.156C599.096 24.1142 599.016 23.8642 598.926 23.6042C598.836 23.3342 598.746 23.0442 598.656 22.7442C598.556 22.4342 598.466 22.1342 598.366 21.8242C598.266 21.5142 598.176 21.2242 598.096 20.9342C598.016 20.6542 597.946 20.3942 597.876 20.1542H597.856C597.766 20.5842 597.656 21.0142 597.516 21.4442C597.366 21.9242 597.216 22.4242 597.056 22.9242C596.916 23.4342 596.766 23.9042 596.616 24.3242Z" fill="#FF9A00"/>
<path d="M605.156 20.0539C604.826 20.0639 604.506 19.9339 604.266 19.7039C604.036 19.4539 603.916 19.1239 603.926 18.7839C603.916 18.4439 604.046 18.1239 604.286 17.8939C604.526 17.6639 604.846 17.5439 605.176 17.5439C605.566 17.5439 605.866 17.6639 606.086 17.8939C606.306 18.1339 606.426 18.4539 606.416 18.7839C606.426 19.1239 606.306 19.4539 606.066 19.7039C605.836 19.9439 605.496 20.0739 605.156 20.0539ZM604.036 28.7339V21.0339C604.036 20.9339 604.076 20.8939 604.166 20.8939H606.146C606.236 20.8939 606.276 20.9439 606.276 21.0339V28.7339C606.276 28.8439 606.236 28.894 606.146 28.894H604.186C604.086 28.894 604.036 28.834 604.036 28.7339Z" fill="#FF9A00"/>
</g>
<g clip-path="url(#clip8_915_3660)">
<path d="M678.531 12.0728H665.781C662.675 12.0728 660.156 14.5912 660.156 17.6978V30.4478C660.156 33.5544 662.675 36.0728 665.781 36.0728H678.531C681.638 36.0728 684.156 33.5544 684.156 30.4478V17.6978C684.156 14.5912 681.638 12.0728 678.531 12.0728Z" fill="#001E36"/>
<path d="M665.556 28.7642V18.4742C665.556 18.4042 665.586 18.3642 665.656 18.3642C665.826 18.3642 665.986 18.3642 666.216 18.3542C666.456 18.3442 666.706 18.3442 666.976 18.3342C667.246 18.3242 667.536 18.3242 667.846 18.3142C668.156 18.3042 668.456 18.3042 668.756 18.3042C669.576 18.3042 670.256 18.4042 670.816 18.6142C671.316 18.7842 671.776 19.0642 672.156 19.4342C672.476 19.7542 672.726 20.1442 672.886 20.5742C673.036 20.9942 673.116 21.4242 673.116 21.8742C673.116 22.7342 672.916 23.4442 672.516 24.0042C672.116 24.5642 671.556 24.9842 670.906 25.2242C670.226 25.4742 669.476 25.5642 668.656 25.5642C668.416 25.5642 668.256 25.5642 668.156 25.5542C668.056 25.5442 667.916 25.5442 667.726 25.5442V28.7542C667.736 28.8242 667.686 28.8842 667.616 28.8942C667.606 28.8942 667.596 28.8942 667.576 28.8942H665.676C665.596 28.8942 665.556 28.8542 665.556 28.7642ZM667.736 20.2942V23.6542C667.876 23.6642 668.006 23.6742 668.126 23.6742H668.656C669.046 23.6742 669.436 23.6142 669.806 23.4942C670.126 23.4042 670.406 23.2142 670.626 22.9642C670.836 22.7142 670.936 22.3742 670.936 21.9342C670.946 21.6242 670.866 21.3142 670.706 21.0442C670.536 20.7842 670.296 20.5842 670.006 20.4742C669.636 20.3242 669.236 20.2642 668.826 20.2742C668.566 20.2742 668.336 20.2742 668.146 20.2842C667.946 20.2742 667.806 20.2842 667.736 20.2942Z" fill="#31A8FF"/>
<path d="M679.356 23.0442C679.056 22.8842 678.736 22.7742 678.396 22.7042C678.026 22.6242 677.656 22.5742 677.276 22.5742C677.076 22.5642 676.866 22.5942 676.676 22.6442C676.546 22.6742 676.436 22.7442 676.366 22.8442C676.316 22.9242 676.286 23.0242 676.286 23.1142C676.286 23.2042 676.326 23.2942 676.386 23.3742C676.476 23.4842 676.596 23.5742 676.726 23.6442C676.956 23.7642 677.196 23.8742 677.436 23.9742C677.976 24.1542 678.496 24.4042 678.976 24.7042C679.306 24.9142 679.576 25.1942 679.766 25.5342C679.926 25.8542 680.006 26.2042 679.996 26.5642C680.006 27.0342 679.866 27.5042 679.606 27.8942C679.326 28.2942 678.936 28.6042 678.486 28.7842C677.996 28.9942 677.396 29.1042 676.676 29.1042C676.216 29.1042 675.766 29.0642 675.316 28.9742C674.966 28.9142 674.616 28.8042 674.296 28.6542C674.226 28.6142 674.176 28.5442 674.186 28.4642V26.7242C674.186 26.6942 674.196 26.6542 674.226 26.6342C674.256 26.6142 674.286 26.6242 674.316 26.6442C674.706 26.8742 675.116 27.0342 675.556 27.1342C675.936 27.2342 676.336 27.2842 676.736 27.2842C677.116 27.2842 677.386 27.2342 677.566 27.1442C677.726 27.0742 677.836 26.9042 677.836 26.7242C677.836 26.5842 677.756 26.4542 677.596 26.3242C677.436 26.1942 677.106 26.0442 676.616 25.8542C676.106 25.6742 675.636 25.4342 675.196 25.1342C674.886 24.9142 674.626 24.6242 674.436 24.2842C674.276 23.9642 674.196 23.6142 674.206 23.2642C674.206 22.8342 674.326 22.4242 674.546 22.0542C674.796 21.6542 675.166 21.3342 675.596 21.1342C676.066 20.8942 676.656 20.7842 677.366 20.7842C677.776 20.7842 678.196 20.8142 678.606 20.8742C678.906 20.9142 679.196 20.9942 679.466 21.1042C679.506 21.1142 679.546 21.1542 679.566 21.1942C679.576 21.2342 679.586 21.2742 679.586 21.3142V22.9442C679.586 22.9842 679.566 23.0242 679.536 23.0442C679.446 23.0642 679.396 23.0642 679.356 23.0442Z" fill="#31A8FF"/>
</g>
<g clip-path="url(#clip9_915_3660)">
<path d="M750.531 12.0728H737.781C734.675 12.0728 732.156 14.5912 732.156 17.6978V30.4478C732.156 33.5544 734.675 36.0728 737.781 36.0728H750.531C753.638 36.0728 756.156 33.5544 756.156 30.4478V17.6978C756.156 14.5912 753.638 12.0728 750.531 12.0728Z" fill="#00005B"/>
<path d="M737.219 29.199V18.899C737.219 18.829 737.249 18.789 737.319 18.789C737.489 18.789 737.649 18.789 737.879 18.779C738.119 18.769 738.369 18.769 738.639 18.759C738.909 18.749 739.199 18.749 739.509 18.739C739.819 18.729 740.119 18.729 740.419 18.729C741.239 18.729 741.919 18.829 742.479 19.039C742.979 19.209 743.439 19.489 743.819 19.859C744.139 20.179 744.389 20.569 744.549 20.999C744.699 21.419 744.779 21.849 744.779 22.299C744.779 23.159 744.579 23.869 744.179 24.429C743.779 24.989 743.219 25.409 742.569 25.649C741.889 25.899 741.139 25.989 740.319 25.989C740.079 25.989 739.919 25.989 739.819 25.979C739.719 25.969 739.579 25.969 739.389 25.969V29.179C739.399 29.249 739.349 29.309 739.279 29.319H739.239H737.339C737.259 29.319 737.219 29.279 737.219 29.189V29.199ZM739.399 20.729V24.089C739.539 24.099 739.669 24.109 739.789 24.109H740.319C740.709 24.109 741.099 24.049 741.469 23.929C741.789 23.839 742.069 23.649 742.289 23.399C742.499 23.149 742.599 22.809 742.599 22.369C742.609 22.059 742.529 21.749 742.369 21.479C742.199 21.219 741.959 21.019 741.669 20.909C741.299 20.759 740.899 20.699 740.489 20.709C740.229 20.709 739.999 20.709 739.809 20.719C739.609 20.709 739.469 20.719 739.399 20.729Z" fill="#9999FF"/>
<path d="M746.219 21.3192H747.969C748.069 21.3192 748.149 21.3892 748.179 21.4792C748.209 21.5593 748.229 21.6392 748.239 21.7292C748.259 21.8293 748.279 21.9392 748.289 22.0393C748.299 22.1492 748.309 22.2692 748.309 22.3993C748.609 22.0492 748.969 21.7592 749.379 21.5392C749.839 21.2792 750.369 21.1492 750.899 21.1492C750.969 21.1392 751.029 21.1892 751.039 21.2592V21.2992V23.2492C751.039 23.3293 750.989 23.3593 750.879 23.3593C750.519 23.3492 750.149 23.3792 749.799 23.4592C749.509 23.5192 749.229 23.6092 748.959 23.7292C748.769 23.8192 748.589 23.9392 748.449 24.0992V29.1992C748.449 29.2993 748.409 29.3392 748.319 29.3392H746.349C746.269 29.3492 746.199 29.2993 746.189 29.2192V29.1793V23.6392C746.189 23.3992 746.189 23.1493 746.179 22.8892C746.169 22.6292 746.169 22.3693 746.159 22.1092C746.159 21.8792 746.139 21.6592 746.119 21.4292C746.109 21.3792 746.139 21.3292 746.189 21.3192C746.189 21.3092 746.209 21.3092 746.219 21.3192Z" fill="#9999FF"/>
</g>
<path d="M828 19.2372V15.6642L823.499 17.9202V17.7867C823.499 16.3624 822.43 15.5029 820.882 15.5029H806.616C804.986 15.5029 804 16.3624 804 17.7867V21.3867L810.302 24.5029L804 27.6462V31.2462C804 32.6434 804.986 33.5029 806.616 33.5029H820.882C822.429 33.5029 823.497 32.6434 823.497 31.2462V31.0587L827.998 33.3417V29.7154L817.533 24.5029L828 19.2372ZM813.904 26.2752L821.643 30.1452H806.136L813.903 26.2752H813.904ZM821.586 18.8614L813.904 22.7029L806.138 18.8614H821.585H821.586Z" fill="black"/>
<defs>
<filter id="filter0_f_915_3660" x="451.756" y="17.7729" width="8.8" height="18.8" filterUnits="userSpaceOnUse" color-interpolation-filters="sRGB">
<feFlood flood-opacity="0" result="BackgroundImageFix"/>
<feBlend mode="normal" in="SourceGraphic" in2="BackgroundImageFix" result="shape"/>
<feGaussianBlur stdDeviation="0.2" result="effect1_foregroundBlur_915_3660"/>
</filter>
<filter id="filter1_f_915_3660" x="448.156" y="14.5728" width="16" height="26" filterUnits="userSpaceOnUse" color-interpolation-filters="sRGB">
<feFlood flood-opacity="0" result="BackgroundImageFix"/>
<feBlend mode="normal" in="SourceGraphic" in2="BackgroundImageFix" result="shape"/>
<feGaussianBlur stdDeviation="2" result="effect1_foregroundBlur_915_3660"/>
</filter>
<linearGradient id="paint0_linear_915_3660" x1="386.259" y1="227.152" x2="1577.35" y2="1401.75" gradientUnits="userSpaceOnUse">
<stop stop-color="#387EB8"/>
<stop offset="1" stop-color="#366994"/>
</linearGradient>
<linearGradient id="paint1_linear_915_3660" x1="501.961" y1="385.754" x2="1780.83" y2="1589.99" gradientUnits="userSpaceOnUse">
<stop stop-color="#FFE052"/>
<stop offset="1" stop-color="#FFC331"/>
</linearGradient>
<linearGradient id="paint2_linear_915_3660" x1="455.823" y1="12.0728" x2="466.372" y2="34.4345" gradientUnits="userSpaceOnUse">
<stop stop-color="#E6AD10"/>
<stop offset="1" stop-color="#C87E0E"/>
</linearGradient>
<linearGradient id="paint3_linear_915_3660" x1="452.156" y1="18.0728" x2="461.028" y2="35.2793" gradientUnits="userSpaceOnUse">
<stop stop-color="#F6D751"/>
<stop offset="1" stop-color="#E6AD10"/>
</linearGradient>
<linearGradient id="paint4_linear_915_3660" x1="447.155" y1="24.0728" x2="452.058" y2="35.6923" gradientUnits="userSpaceOnUse">
<stop stop-color="#F9E589"/>
<stop offset="1" stop-color="#F6D751"/>
</linearGradient>
<clipPath id="clip0_915_3660">
<rect width="24" height="24" fill="white" transform="translate(12.1562 12.0728)"/>
</clipPath>
<clipPath id="clip1_915_3660">
<rect width="24" height="24" fill="white" transform="translate(84.1562 12.0728)"/>
</clipPath>
<clipPath id="clip2_915_3660">
<rect width="24" height="24" fill="white" transform="translate(156.156 12.0728)"/>
</clipPath>
<clipPath id="clip3_915_3660">
<rect width="24" height="25" fill="white" transform="translate(228.156 11.5728)"/>
</clipPath>
<clipPath id="clip4_915_3660">
<rect width="24" height="24" fill="white" transform="translate(300.156 12.0728)"/>
</clipPath>
<clipPath id="clip5_915_3660">
<rect width="15" height="24" fill="white" transform="translate(376.656 12.0728)"/>
</clipPath>
<clipPath id="clip6_915_3660">
<rect width="24" height="24" fill="white" transform="translate(444.156 12.0728)"/>
</clipPath>
<clipPath id="clip7_915_3660">
<rect width="24" height="24" fill="white" transform="translate(588.156 12.0728)"/>
</clipPath>
<clipPath id="clip8_915_3660">
<rect width="24" height="24" fill="white" transform="translate(660.156 12.0728)"/>
</clipPath>
<clipPath id="clip9_915_3660">
<rect width="24" height="24" fill="white" transform="translate(732.156 12.0728)"/>
</clipPath>
</defs>
</svg>
