<svg width="840" height="49" viewBox="0 0 840 49" fill="none" xmlns="http://www.w3.org/2000/svg">
<path d="M20.9062 34.0729C22.7003 34.0729 24.1562 32.5796 24.1562 30.7396V27.4062H20.9062C19.1123 27.4062 17.6562 28.8996 17.6562 30.7396C17.6562 32.5796 19.1123 34.0729 20.9062 34.0729Z" fill="#0ACF83"/>
<path d="M17.6562 24.0726C17.6562 22.2326 19.1123 20.7393 20.9062 20.7393H24.1562V27.4059H20.9062C19.1123 27.4059 17.6562 25.9126 17.6562 24.0726Z" fill="#A259FF"/>
<path d="M17.6562 17.4061C17.6562 15.5661 19.1123 14.0728 20.9062 14.0728H24.1562V20.7394H20.9062C19.1123 20.7394 17.6562 19.2461 17.6562 17.4061Z" fill="#F24E1E"/>
<path d="M24.1562 14.0728H27.4062C29.2003 14.0728 30.6562 15.5661 30.6562 17.4061C30.6562 19.2461 29.2003 20.7394 27.4062 20.7394H24.1562V14.0728Z" fill="#FF7262"/>
<path d="M30.6562 24.0726C30.6562 25.9126 29.2003 27.4059 27.4062 27.4059C25.6123 27.4059 24.1562 25.9126 24.1562 24.0726C24.1562 22.2326 25.6123 20.7393 27.4062 20.7393C29.2003 20.7393 30.6562 22.2326 30.6562 24.0726Z" fill="#1ABCFE"/>
<rect x="84" y="12.5029" width="24" height="24" rx="4" fill="url(#paint0_linear_915_3657)"/>
<rect width="8.25306" height="8.25306" rx="1.3205" transform="matrix(0.707114 -0.7071 0.707114 0.7071 92.3283 24.4121)" fill="white"/>
<rect x="0.778119" width="7.15264" height="7.15264" rx="0.77029" transform="matrix(0.707114 -0.7071 0.707114 0.7071 88.2279 24.8891)" stroke="white" stroke-width="1.10042"/>
<g clip-path="url(#clip0_915_3657)">
<path d="M177.812 12.0728H158.5C157.206 12.0728 156.156 13.1221 156.156 14.4165V33.729C156.156 35.0234 157.206 36.0728 158.5 36.0728H177.812C179.107 36.0728 180.156 35.0234 180.156 33.729V14.4165C180.156 13.1221 179.107 12.0728 177.812 12.0728Z" fill="url(#paint1_linear_915_3657)"/>
<path d="M175.911 15.1929H170.841C170.22 15.1929 169.716 15.6966 169.716 16.3179V24.5679C169.716 25.1892 170.22 25.6929 170.841 25.6929H175.911C176.533 25.6929 177.036 25.1892 177.036 24.5679V16.3179C177.036 15.6966 176.533 15.1929 175.911 15.1929Z" fill="white"/>
<path d="M165.471 15.1929H160.401C159.78 15.1929 159.276 15.6966 159.276 16.3179V30.5679C159.276 31.1892 159.78 31.6929 160.401 31.6929H165.471C166.093 31.6929 166.596 31.1892 166.596 30.5679V16.3179C166.596 15.6966 166.093 15.1929 165.471 15.1929Z" fill="white"/>
</g>
<g clip-path="url(#clip1_915_3657)">
<path d="M242.453 12.1196L244.902 12.1358C244.948 12.1716 244.985 12.195 245.025 12.2126C245.468 12.4133 245.95 12.5569 246.35 12.8235C247.509 13.5941 248.641 14.4062 249.773 15.2179C250.299 15.5942 250.817 15.9861 251.302 16.4123C251.663 16.7288 251.824 17.1778 251.825 17.6567L251.824 32.7263C251.824 32.9364 251.788 33.1526 251.729 33.3548C251.463 34.2761 250.874 34.9067 249.946 35.1529C249.456 35.2824 248.939 35.3228 248.432 35.3646C247.64 35.4304 246.845 35.4626 246.052 35.5103L244.551 35.604L242.148 35.7454L240.671 35.8376L238.245 35.9783L236.991 36.0296C236.95 36.0317 236.913 36.0881 236.875 36.1196C235.921 36.1196 234.967 36.1196 234.005 36.1043C233.958 36.0677 233.923 36.0383 233.882 36.0266C233.301 35.8581 232.813 35.5367 232.438 35.07C231.919 34.4248 231.425 33.7598 230.926 33.0992C230.312 32.2875 229.682 31.4878 229.102 30.6529C228.761 30.165 228.578 29.584 228.579 28.9888C228.577 24.5381 228.578 20.0874 228.58 15.6368C228.58 15.5085 228.603 15.3789 228.625 15.2514C228.858 13.8812 229.872 13.1501 231.079 13.0146C231.705 12.9443 232.335 12.9128 232.965 12.8711L234.628 12.7751L235.343 12.7283L237.499 12.5423L238.694 12.4485L240.674 12.3079L242.337 12.2096C242.378 12.2068 242.415 12.1511 242.453 12.1196ZM233.021 33.4823C233.121 33.6118 233.232 33.7348 233.319 33.8726C233.742 34.5339 234.347 34.7741 235.117 34.7229L240.331 34.4124L246.199 34.0579L249.121 33.8696C249.987 33.8001 250.405 33.3321 250.422 32.4634V32.2759L250.428 18.0516C250.429 17.6231 250.281 17.3235 249.938 17.0841L245.809 14.1741C245.145 13.6907 244.439 13.4651 243.623 13.5296L238.998 13.8716L234.163 14.2283L231.128 14.4649C230.515 14.5211 230.135 14.8961 230.025 15.4976C229.998 15.6512 229.985 15.8068 229.986 15.9626L229.973 28.383C229.969 29.1968 230.218 29.8736 230.705 30.4961L233.021 33.4823Z" fill="white"/>
<path d="M233.01 33.4699L230.705 30.4962C230.218 29.8737 229.969 29.197 229.973 28.3832L229.986 15.9628C229.986 15.8076 229.998 15.6501 230.025 15.4978C230.135 14.8965 230.515 14.5215 231.128 14.4651L234.163 14.2285L238.998 13.8718L243.623 13.5298C244.44 13.4653 245.145 13.6909 245.809 14.1743C247.171 15.1652 248.558 16.1211 249.939 17.0843C250.281 17.3237 250.429 17.6233 250.428 18.0518L250.422 32.2768V32.4643C250.405 33.3323 249.987 33.8003 249.121 33.8698C248.148 33.9482 247.174 33.9988 246.199 34.0581L240.331 34.4125L235.117 34.7232C234.348 34.7743 233.742 34.5342 233.319 33.8728C233.232 33.735 233.121 33.612 233.01 33.4699ZM234.211 24.8464V31.1254L234.213 32.2965C234.223 32.8217 234.48 33.0833 235.005 33.1133C235.137 33.1206 235.27 33.1161 235.403 33.108L239.798 32.8489L248.192 32.3691C248.715 32.3398 248.956 32.1105 249.005 31.5921C249.015 31.4989 249.012 31.4046 249.012 31.3108L249.013 19.2214C249.013 19.1511 249.015 19.0808 249.011 19.0105C248.979 18.5293 248.772 18.333 248.294 18.3585L243.969 18.6077C241.942 18.7256 239.916 18.8442 237.89 18.9636L234.851 19.146C234.464 19.1708 234.289 19.3378 234.23 19.7166C234.217 19.817 234.21 19.9184 234.212 20.0198L234.211 24.8464ZM244.931 14.9601C244.564 14.761 244.166 14.695 243.755 14.7177C243.125 14.7522 242.494 14.8041 241.863 14.8497L232.873 15.5029C232.601 15.5226 232.328 15.5423 232.06 15.5908C231.97 15.607 231.856 15.6977 231.829 15.7798C231.808 15.8376 231.899 15.9542 231.966 16.018C232.089 16.1357 232.231 16.2345 232.365 16.3408C232.683 16.5921 233.022 16.8212 233.315 17.0989C233.869 17.6254 234.514 17.7471 235.254 17.6937L241.073 17.3288L247.337 16.953C247.394 16.9502 247.451 16.9326 247.577 16.9092C247.462 16.7897 247.395 16.6982 247.308 16.6337C247.002 16.4071 246.692 16.1844 246.379 15.9658C245.899 15.6273 245.416 15.2921 244.931 14.9601Z" fill="black"/>
<path d="M234.211 24.8229L234.212 20.0197C234.212 19.9185 234.215 19.8161 234.23 19.7165C234.289 19.3378 234.464 19.1709 234.851 19.146L237.89 18.9635L243.968 18.6076L248.294 18.3585C248.772 18.333 248.979 18.5298 249.01 19.0104C249.015 19.0807 249.013 19.151 249.013 19.2213L249.012 31.3108L249.005 31.592C248.956 32.1105 248.715 32.3398 248.192 32.369L239.798 32.8488L235.403 33.108L235.005 33.1132C234.48 33.0832 234.223 32.8216 234.213 32.2972L234.211 31.1253V24.8229ZM242.792 24.8353L240.38 21.1593C240.295 21.0311 240.213 20.9887 240.057 21.0056L239.029 21.075L237.137 21.2135C236.672 21.2561 236.391 21.6933 236.52 22.1467L237.522 22.2324V30.3498L236.839 30.5424C236.537 30.6316 236.407 30.8866 236.509 31.2125L238.817 31.08L239.726 31.0053C240.117 30.9408 240.328 30.7006 240.381 30.3088L239.119 30.021V23.9154L239.213 24.0466L242.113 28.5751C242.539 29.2365 242.977 29.8903 243.426 30.5364C243.746 30.9958 244.218 31.1364 244.748 31.022C245.08 30.9511 245.399 30.8163 245.724 30.7115C245.893 30.6566 245.951 30.5555 245.95 30.3658L245.945 22.022C245.945 21.5343 245.945 21.5343 246.427 21.437C246.915 21.3388 247.037 21.144 246.926 20.6225L244.01 20.7997C243.693 20.8224 243.453 21.0875 243.405 21.396C243.381 21.5446 243.412 21.6266 243.59 21.6369L244.472 21.7344V27.393C243.913 26.54 243.353 25.6877 242.792 24.836V24.8353ZM244.947 14.9681C245.425 15.2986 245.903 15.6311 246.379 15.9656C246.691 16.1842 247.001 16.4069 247.308 16.6336C247.395 16.6981 247.462 16.7896 247.577 16.9091L247.337 16.953L241.072 17.3287L235.253 17.6936C234.514 17.747 233.869 17.6253 233.315 17.0988C233.022 16.8213 232.683 16.592 232.364 16.3408C232.23 16.2345 232.088 16.1356 231.965 16.0177C231.899 15.954 231.808 15.8377 231.828 15.7796C231.856 15.6976 231.971 15.6069 232.06 15.5908C232.328 15.5424 232.601 15.5225 232.873 15.5028L241.863 14.8496L243.755 14.7176C244.165 14.6951 244.564 14.7607 244.947 14.9681Z" fill="white"/>
<path d="M242.802 24.8492L244.472 27.393V21.7342L243.59 21.6367C243.412 21.6266 243.381 21.5447 243.404 21.396C243.453 21.0876 243.693 20.8224 244.01 20.7997L246.926 20.6226C247.037 21.1438 246.915 21.3388 246.427 21.4369C245.945 21.5336 245.945 21.5336 245.945 22.0221L245.95 30.3658C245.951 30.5556 245.893 30.6566 245.724 30.7116L244.748 31.0221C244.218 31.1357 243.746 30.9958 243.427 30.5364C242.978 29.8902 242.54 29.2364 242.113 28.5752L239.213 24.0465C239.192 24.0142 239.169 23.9842 239.119 23.9154V30.021L240.381 30.3088C240.328 30.7007 240.117 30.9407 239.726 31.0054C239.427 31.0543 239.12 31.0616 238.817 31.08L236.509 31.2126C236.407 30.8867 236.537 30.6317 236.839 30.5424L237.522 30.3499V22.2324L236.52 22.1467C236.391 21.6934 236.672 21.2561 237.137 21.2136C237.766 21.1549 238.398 21.1191 239.029 21.0752C239.372 21.0517 239.716 21.0429 240.057 21.0056C240.213 20.9887 240.296 21.0311 240.38 21.1594L242.802 24.8492Z" fill="black"/>
</g>
<g clip-path="url(#clip2_915_3657)">
<path d="M314.281 12.0728H305.249C304.401 12.0728 303.656 12.836 303.656 13.7096V34.4369C303.656 35.3096 304.4 36.0737 305.25 36.0737H319.063C319.913 36.0737 320.657 35.3105 320.657 34.4369V18.618L316.939 15.8907L314.281 12.0728Z" fill="#4285F4"/>
<path d="M307.906 29.5275H316.406V28.4369H307.907L307.906 29.5275ZM307.906 31.7096H314.281V30.619H307.906V31.7096ZM307.906 24.0728V25.1633H316.406V24.0728H307.906ZM307.906 27.3454H316.406V26.2548H307.907L307.906 27.3454Z" fill="#F1F1F1"/>
<path d="M314.281 12.0728V16.9822C314.281 17.8548 315.025 18.618 315.875 18.618H320.656L314.281 12.0728Z" fill="#A1C2FA"/>
</g>
<g clip-path="url(#clip3_915_3657)">
<mask id="mask0_915_3657" style="mask-type:luminance" maskUnits="userSpaceOnUse" x="372" y="12" width="25" height="25">
<path d="M396.156 12.0728H372.156V36.0728H396.156V12.0728Z" fill="white"/>
</mask>
<g mask="url(#mask0_915_3657)">
<path d="M384.156 36.0728C390.784 36.0728 396.156 30.7002 396.156 24.0728C396.156 17.4453 390.784 12.0728 384.156 12.0728C377.529 12.0728 372.156 17.4453 372.156 24.0728C372.156 30.7002 377.529 36.0728 384.156 36.0728Z" fill="#7D2AE7"/>
<path d="M384.156 36.0728C390.784 36.0728 396.156 30.7002 396.156 24.0728C396.156 17.4453 390.784 12.0728 384.156 12.0728C377.529 12.0728 372.156 17.4453 372.156 24.0728C372.156 30.7002 377.529 36.0728 384.156 36.0728Z" fill="url(#paint2_radial_915_3657)"/>
<path d="M384.156 36.0728C390.784 36.0728 396.156 30.7002 396.156 24.0728C396.156 17.4453 390.784 12.0728 384.156 12.0728C377.529 12.0728 372.156 17.4453 372.156 24.0728C372.156 30.7002 377.529 36.0728 384.156 36.0728Z" fill="url(#paint3_radial_915_3657)"/>
<path d="M384.156 36.0728C390.784 36.0728 396.156 30.7002 396.156 24.0728C396.156 17.4453 390.784 12.0728 384.156 12.0728C377.529 12.0728 372.156 17.4453 372.156 24.0728C372.156 30.7002 377.529 36.0728 384.156 36.0728Z" fill="url(#paint4_radial_915_3657)"/>
<path d="M384.156 36.0728C390.784 36.0728 396.156 30.7002 396.156 24.0728C396.156 17.4453 390.784 12.0728 384.156 12.0728C377.529 12.0728 372.156 17.4453 372.156 24.0728C372.156 30.7002 377.529 36.0728 384.156 36.0728Z" fill="url(#paint5_radial_915_3657)"/>
<path d="M389.337 26.5345C389.238 26.5345 389.151 26.6181 389.06 26.8007C388.036 28.8775 386.267 30.347 384.22 30.347C381.853 30.347 380.387 28.2103 380.387 25.2585C380.387 20.2586 383.173 17.3676 385.62 17.3676C386.764 17.3676 387.462 18.0862 387.462 19.2297C387.462 20.5868 386.691 21.3053 386.691 21.784C386.691 21.9988 386.824 22.1289 387.089 22.1289C388.154 22.1289 389.404 20.9055 389.404 19.1771C389.404 17.5013 387.945 16.2695 385.498 16.2695C381.454 16.2695 377.86 20.0186 377.86 25.206C377.86 29.2214 380.153 31.8747 383.691 31.8747C387.446 31.8747 389.618 28.1387 389.618 26.9261C389.618 26.6575 389.48 26.5345 389.337 26.5345Z" fill="white"/>
</g>
</g>
<g clip-path="url(#clip4_915_3657)">
<path d="M445.282 28.6198C443.781 27.1317 443.781 24.7189 445.282 23.2308L449.36 19.1888C450.629 17.9308 452.565 17.7363 454.04 18.6052C454.497 18.8739 454.493 19.4904 454.117 19.8625C453.742 20.2345 453.129 20.2025 452.62 20.0548C451.967 19.8657 451.234 20.0261 450.719 20.5361L446.642 24.578C446.463 24.7542 446.322 24.9639 446.225 25.1952C446.128 25.4265 446.079 25.6746 446.079 25.9253C446.079 26.1759 446.128 26.4241 446.225 26.6554C446.322 26.8866 446.463 27.0964 446.642 27.2725C447.392 28.0165 448.609 28.0165 449.36 27.2725L457.515 19.1889C459.017 17.7007 461.451 17.7007 462.952 19.1889L467.03 23.2307C468.532 24.7188 468.532 27.1317 467.03 28.6197C465.529 30.1079 463.095 30.1079 461.593 28.6197L460.234 27.2725L458.535 28.9565C457.266 30.2145 455.33 30.4091 453.855 29.5402C453.398 29.2715 453.402 28.655 453.778 28.2829C454.153 27.9109 454.766 27.9429 455.275 28.0906C455.927 28.2798 456.661 28.1193 457.176 27.6093L458.923 25.8771C459.647 25.1596 460.821 25.1596 461.545 25.8771L462.952 27.2725C463.703 28.0165 464.92 28.0165 465.671 27.2725C465.849 27.0964 465.991 26.8866 466.088 26.6553C466.184 26.4241 466.234 26.1759 466.234 25.9253C466.234 25.6746 466.184 25.4265 466.088 25.1952C465.991 24.9639 465.849 24.7542 465.671 24.578L461.593 20.5361C460.842 19.7921 459.625 19.7921 458.875 20.5361L450.719 28.6199C449.218 30.1081 446.784 30.1079 445.282 28.6198Z" fill="#4285F4"/>
</g>
<g clip-path="url(#clip5_915_3657)">
<path d="M521.656 14.0728H534.656V20.7394H528.156L521.656 14.0728ZM521.656 20.7394H528.156L534.656 27.4061H528.156V34.0728L521.656 27.4061V20.7394Z" fill="black"/>
</g>
<g clip-path="url(#clip6_915_3657)">
<path fill-rule="evenodd" clip-rule="evenodd" d="M612.156 16.5728L604.498 31.5657H597.305L600.51 25.352H600.366C597.722 28.7894 593.777 31.0522 588.156 31.5657V25.438C588.156 25.438 591.752 25.2253 593.866 22.9995H588.156V16.5729H594.573V21.8587L594.717 21.8581L597.339 16.5729H602.193V21.8252L602.337 21.825L605.057 16.5728H612.156Z" fill="#146EF5"/>
</g>
<g clip-path="url(#clip7_915_3657)">
<path d="M660.156 19.4268L662.269 28.7188H663.07C663.423 28.7188 663.765 28.5979 664.039 28.3762C664.313 28.1545 664.503 27.8455 664.576 27.5008L665.927 21.1608C665.935 21.1222 665.956 21.0875 665.986 21.0626C666.017 21.0376 666.055 21.0239 666.094 21.0238C666.174 21.0238 666.244 21.0818 666.261 21.1608L667.613 27.5008C667.687 27.8455 667.877 28.1545 668.151 28.3762C668.425 28.5979 668.767 28.7188 669.119 28.7188H669.924L672.037 19.4268H671.472C670.852 19.4268 670.313 19.8568 670.176 20.4618L668.916 26.0068L667.81 20.8308C667.76 20.5966 667.662 20.3752 667.522 20.1802C667.383 19.9852 667.206 19.8207 667.001 19.6968C666.796 19.5728 666.567 19.492 666.33 19.4594C666.093 19.4267 665.851 19.4428 665.62 19.5068C664.981 19.6828 664.507 20.2228 664.369 20.8718L663.275 25.9988L662.015 20.4618C661.948 20.168 661.784 19.9056 661.548 19.7175C661.313 19.5295 661.021 19.427 660.719 19.4268H660.156ZM674.148 19.4268C673.896 19.4268 673.654 19.5268 673.476 19.705C673.298 19.8831 673.198 20.1247 673.197 20.3768V28.7188H673.832C674.084 28.7185 674.326 28.6184 674.504 28.4403C674.682 28.2622 674.783 28.0207 674.783 27.7688V19.4258L674.148 19.4268ZM675.926 19.4268L679.084 24.0868L675.944 28.7188H677.269C677.637 28.7188 677.981 28.5378 678.187 28.2328L679.943 25.6428C679.954 25.6269 679.969 25.6139 679.986 25.605C680.003 25.596 680.022 25.5913 680.042 25.5913C680.061 25.5913 680.08 25.596 680.097 25.605C680.114 25.6139 680.129 25.6269 680.14 25.6428L681.894 28.2328C682.1 28.5378 682.444 28.7188 682.812 28.7188H684.138L680.998 24.0868L684.156 19.4268H682.83C682.462 19.4268 682.118 19.6078 681.912 19.9128L680.14 22.5298C680.129 22.5457 680.114 22.5586 680.097 22.5676C680.08 22.5766 680.061 22.5812 680.042 22.5812C680.022 22.5812 680.003 22.5766 679.986 22.5676C679.969 22.5586 679.954 22.5457 679.943 22.5298L678.17 19.9128C678.069 19.7629 677.932 19.6403 677.772 19.5555C677.612 19.4708 677.433 19.4266 677.252 19.4268H675.926Z" fill="black"/>
</g>
<g clip-path="url(#clip8_915_3657)">
<path d="M732.156 12.0728H756.156V36.0728H732.156V12.0728Z" fill="#F7DF1E"/>
<path d="M738.467 32.1291L740.303 31.0176C740.658 31.6459 740.98 32.1774 741.753 32.1774C742.494 32.1774 742.961 31.8875 742.961 30.7599V23.0913H745.217V30.7918C745.217 33.1278 743.848 34.191 741.85 34.191C740.046 34.191 738.998 33.2566 738.467 32.1289" fill="black"/>
<path d="M746.442 31.887L748.278 30.8237C748.762 31.6132 749.39 32.1932 750.502 32.1932C751.436 32.1932 752.032 31.7259 752.032 31.0815C752.032 30.3082 751.42 30.0343 750.389 29.5834L749.825 29.3415C748.198 28.6489 747.119 27.779 747.119 25.9424C747.119 24.2508 748.407 22.9619 750.421 22.9619C751.855 22.9619 752.886 23.4614 753.627 24.7663L751.871 25.894C751.484 25.2013 751.066 24.9275 750.421 24.9275C749.761 24.9275 749.342 25.3463 749.342 25.894C749.342 26.5706 749.761 26.8446 750.727 27.2635L751.291 27.5051C753.208 28.3268 754.288 29.1644 754.288 31.0493C754.288 33.0793 752.693 34.1908 750.55 34.1908C748.456 34.1908 747.102 33.192 746.442 31.887Z" fill="black"/>
</g>
<path d="M818.679 24.4787C818.679 23.0443 817.48 21.8813 816 21.8813C814.521 21.8813 813.321 23.0443 813.321 24.4787C813.321 25.9133 814.521 27.0762 816 27.0762C817.48 27.0762 818.679 25.9133 818.679 24.4787Z" fill="#53C1DE"/>
<path fill-rule="evenodd" clip-rule="evenodd" d="M824.7 19.6566C825.266 17.4277 825.977 13.2944 823.47 11.8931C820.975 10.4979 817.728 13.1714 816.014 14.7761C814.304 13.1873 810.966 10.5253 808.462 11.9311C805.968 13.331 806.737 17.3957 807.315 19.6386C804.988 20.2793 801 21.6593 801 24.4788C801 27.2903 804.984 28.7917 807.297 29.4318C806.717 31.6871 805.986 35.6938 808.483 37.0906C810.997 38.4961 814.325 35.8974 816.055 34.2751C817.781 35.8893 820.997 38.505 823.492 37.1043C825.996 35.6992 825.344 31.6213 824.765 29.3654C827.007 28.7239 831 27.2552 831 24.4788C831 21.6864 826.99 20.2952 824.7 19.6566ZM824.416 28.1699C824.037 27.0045 823.524 25.7652 822.897 24.485C823.496 23.235 823.988 22.0117 824.357 20.8538C826.036 21.3257 829.719 22.4042 829.719 24.4788C829.719 26.5729 826.185 27.6616 824.416 28.1699ZM822.85 36.0289C820.988 37.0739 818.222 34.5725 816.948 33.3838C817.793 32.4873 818.638 31.4451 819.462 30.2878C820.913 30.1631 822.283 29.9591 823.526 29.6806C823.933 31.2763 824.72 34.9792 822.85 36.0289ZM809.124 36.014C807.261 34.9729 808.113 31.3975 808.54 29.7362C809.768 29.9998 811.129 30.1894 812.582 30.3037C813.412 31.4361 814.282 32.477 815.158 33.3886C814.075 34.4037 810.995 37.0599 809.124 36.014ZM802.281 24.4788C802.281 22.3769 805.942 21.3062 807.659 20.8355C808.035 22.0194 808.527 23.2573 809.121 24.5091C808.519 25.7795 808.02 27.037 807.641 28.2349C806.004 27.7805 802.281 26.582 802.281 24.4788ZM809.104 13.0065C810.973 11.9571 813.875 14.5128 815.116 15.6631C814.244 16.5705 813.383 17.6035 812.56 18.7294C811.149 18.8562 809.799 19.0598 808.557 19.3326C808.091 17.5236 807.236 14.0547 809.104 13.0065ZM820.379 20.08C821.336 20.1971 822.254 20.3529 823.115 20.5435C822.856 21.3469 822.534 22.187 822.154 23.0482C821.604 22.0362 821.014 21.0445 820.379 20.08ZM816.014 16.551C816.605 17.1719 817.197 17.8652 817.78 18.6174C816.599 18.5632 815.415 18.563 814.234 18.6166C814.817 17.8714 815.414 17.1791 816.014 16.551ZM809.856 23.0473C809.483 22.1891 809.164 21.3453 808.903 20.5304C809.759 20.3447 810.672 20.1929 811.623 20.0777C810.987 21.0401 810.397 22.0314 809.856 23.0473ZM811.65 28.9686C810.668 28.8623 809.741 28.7182 808.886 28.5376C809.15 27.7084 809.477 26.8464 809.858 25.9697C810.406 26.9962 811.005 27.9971 811.65 28.9686ZM816.05 32.4944C815.442 31.8589 814.836 31.156 814.245 30.4C815.433 30.4452 816.623 30.4453 817.811 30.3939C817.227 31.1637 816.637 31.8676 816.05 32.4944ZM822.167 25.9251C822.568 26.8113 822.906 27.6686 823.174 28.4838C822.304 28.6763 821.365 28.8313 820.376 28.9464C821.015 27.9636 821.615 26.9565 822.167 25.9251ZM818.747 29.097C816.93 29.2229 815.102 29.2215 813.284 29.1073C812.251 27.6444 811.331 26.1059 810.538 24.5087C811.328 22.9148 812.24 21.3793 813.268 19.9187C815.088 19.7854 816.918 19.785 818.737 19.9195C819.756 21.38 820.667 22.9115 821.476 24.491C820.677 26.0841 819.759 27.6227 818.747 29.097ZM822.83 12.9695C824.701 14.0155 823.868 17.7302 823.459 19.3455C822.215 19.067 820.863 18.8598 819.448 18.731C818.624 17.593 817.77 16.5581 816.912 15.6624C818.169 14.4873 820.978 11.9338 822.83 12.9695Z" fill="#53C1DE"/>
<defs>
<linearGradient id="paint0_linear_915_3657" x1="108" y1="24.5029" x2="84" y2="24.5029" gradientUnits="userSpaceOnUse">
<stop stop-color="#DB63FF"/>
<stop offset="1" stop-color="#5A33FE"/>
</linearGradient>
<linearGradient id="paint1_linear_915_3657" x1="1356.16" y1="12.0728" x2="1356.16" y2="2412.07" gradientUnits="userSpaceOnUse">
<stop stop-color="#0091E6"/>
<stop offset="1" stop-color="#0079BF"/>
</linearGradient>
<radialGradient id="paint2_radial_915_3657" cx="0" cy="0" r="1" gradientUnits="userSpaceOnUse" gradientTransform="translate(376.792 33.3445) rotate(-49.416) scale(18.562)">
<stop stop-color="#6420FF"/>
<stop offset="1" stop-color="#6420FF" stop-opacity="0"/>
</radialGradient>
<radialGradient id="paint3_radial_915_3657" cx="0" cy="0" r="1" gradientUnits="userSpaceOnUse" gradientTransform="translate(378.51 14.8011) rotate(54.703) scale(20.9321)">
<stop stop-color="#00C4CC"/>
<stop offset="1" stop-color="#00C4CC" stop-opacity="0"/>
</radialGradient>
<radialGradient id="paint4_radial_915_3657" cx="0" cy="0" r="1" gradientUnits="userSpaceOnUse" gradientTransform="translate(376.792 33.3443) rotate(-45.1954) scale(18.3373 8.43353)">
<stop stop-color="#6420FF"/>
<stop offset="1" stop-color="#6420FF" stop-opacity="0"/>
</radialGradient>
<radialGradient id="paint5_radial_915_3657" cx="0" cy="0" r="1" gradientUnits="userSpaceOnUse" gradientTransform="translate(381.971 15.3064) rotate(66.5198) scale(18.895 31.6535)">
<stop stop-color="#00C4CC" stop-opacity="0.725916"/>
<stop offset="0.0001" stop-color="#00C4CC"/>
<stop offset="1" stop-color="#00C4CC" stop-opacity="0"/>
</radialGradient>
<clipPath id="clip0_915_3657">
<rect width="24" height="24" fill="white" transform="translate(156.156 12.0728)"/>
</clipPath>
<clipPath id="clip1_915_3657">
<rect width="24" height="24" fill="white" transform="translate(228.156 12.0728)"/>
</clipPath>
<clipPath id="clip2_915_3657">
<rect width="17" height="24" fill="white" transform="translate(303.656 12.0728)"/>
</clipPath>
<clipPath id="clip3_915_3657">
<rect width="24" height="24" fill="white" transform="translate(372.156 12.0728)"/>
</clipPath>
<clipPath id="clip4_915_3657">
<rect width="24" height="24" fill="white" transform="translate(444.156 12.0728)"/>
</clipPath>
<clipPath id="clip5_915_3657">
<rect width="13" height="20" fill="white" transform="translate(521.656 14.0728)"/>
</clipPath>
<clipPath id="clip6_915_3657">
<rect width="24" height="15" fill="white" transform="translate(588.156 16.5728)"/>
</clipPath>
<clipPath id="clip7_915_3657">
<rect width="24" height="24" fill="white" transform="translate(660.156 12.0728)"/>
</clipPath>
<clipPath id="clip8_915_3657">
<rect width="24" height="24" fill="white" transform="translate(732.156 12.0728)"/>
</clipPath>
</defs>
</svg>
