<svg width="842" height="49" viewBox="0 0 842 49" fill="none" xmlns="http://www.w3.org/2000/svg">
<path d="M31.5625 24.0028C29.1875 24.3153 27.125 23.8153 25.4375 22.1903C24.9375 21.7528 24.5 21.2528 24.0625 20.8153C22.375 19.2528 20.3125 19.2528 18.6875 20.8778C18.5625 21.0028 18.375 21.1278 18.1875 21.3153C18.5 19.1278 20.5 17.1903 22.625 16.8153C25.375 16.3778 27.6875 17.0653 29.625 19.1278C29.9375 19.5028 30.3125 19.8153 30.6875 20.1278C32.25 21.5028 34.25 21.4403 35.75 20.0028C35.9375 19.8153 36.0625 19.6278 36.3125 19.3153C35.9375 21.8778 33.875 23.7528 31.5 24.0028H31.5625ZM12.4375 27.3778C13.75 24.6278 16.3125 23.8153 19 24.1278C20.6875 24.3153 22 25.0653 23.1875 26.1903C23.5625 26.5653 23.9375 26.9403 24.3125 27.3153C25.9375 28.8778 28 28.8778 29.6875 27.3153C29.8125 27.1903 29.875 27.0653 30.25 26.5653C30.1875 27.0653 30.125 27.1903 30.125 27.3153C29.5 29.6903 27.375 31.2528 24.875 31.4403C22.5625 31.5653 20.5625 30.9403 18.9375 29.1903C18.5 28.7528 18.0625 28.3153 17.625 27.9403C16.0625 26.6278 14.0625 26.7528 12.625 28.1278C12.4375 28.3153 12.25 28.4403 12 28.6903C12.125 28.2528 12.25 27.8153 12.4375 27.3778Z" fill="#45A8B3"/>
<g clip-path="url(#clip0_915_3659)">
<path d="M96.8052 10.7422C96.398 10.5163 95.9145 10.5163 95.5073 10.7422L84.7925 16.842C84.3853 17.0679 84.1562 17.4946 84.1562 17.9465V30.1712C84.1562 30.623 84.4108 31.0498 84.7925 31.2757L95.5073 37.3755C95.9145 37.6014 96.398 37.6014 96.8052 37.3755L107.52 31.2757C107.927 31.0498 108.156 30.623 108.156 30.1712V17.9465C108.156 17.4946 107.902 17.0679 107.52 16.842L96.8052 10.7422Z" fill="url(#paint0_linear_915_3659)"/>
<mask id="mask0_915_3659" style="mask-type:luminance" maskUnits="userSpaceOnUse" x="84" y="10" width="25" height="28">
<path d="M96.8052 10.7422C96.398 10.5163 95.9145 10.5163 95.5073 10.7422L84.7925 16.842C84.3853 17.0679 84.1562 17.4946 84.1562 17.9465V30.1712C84.1562 30.623 84.4108 31.0498 84.7925 31.2757L95.5073 37.3755C95.9145 37.6014 96.398 37.6014 96.8052 37.3755L107.52 31.2757C107.927 31.0498 108.156 30.623 108.156 30.1712V17.9465C108.156 17.4946 107.902 17.0679 107.52 16.842L96.8052 10.7422Z" fill="white"/>
</mask>
<g mask="url(#mask0_915_3659)">
<path d="M107.545 16.842L96.7798 10.7422C96.678 10.692 96.5507 10.6418 96.4489 10.6167L84.3853 30.9996C84.4871 31.1251 84.6144 31.2255 84.7416 31.3008L95.5073 37.4006C95.8127 37.5763 96.169 37.6265 96.4998 37.5261L107.825 17.093C107.749 16.9926 107.647 16.9173 107.545 16.842Z" fill="url(#paint1_linear_915_3659)"/>
</g>
<mask id="mask1_915_3659" style="mask-type:luminance" maskUnits="userSpaceOnUse" x="84" y="10" width="25" height="28">
<path d="M96.8052 10.7422C96.398 10.5163 95.9145 10.5163 95.5073 10.7422L84.7925 16.842C84.3853 17.0679 84.1562 17.4946 84.1562 17.9465V30.1712C84.1562 30.623 84.4108 31.0498 84.7925 31.2757L95.5073 37.3755C95.9145 37.6014 96.398 37.6014 96.8052 37.3755L107.52 31.2757C107.927 31.0498 108.156 30.623 108.156 30.1712V17.9465C108.156 17.4946 107.902 17.0679 107.52 16.842L96.8052 10.7422Z" fill="white"/>
</mask>
<g mask="url(#mask1_915_3659)">
<path d="M107.571 31.2758C107.876 31.1001 108.105 30.7988 108.207 30.4725L96.398 10.5917C96.0926 10.5415 95.7618 10.5666 95.4818 10.7423L84.7925 16.817L96.3217 37.5513C96.4744 37.5262 96.6525 37.476 96.8052 37.4007L107.571 31.2758Z" fill="url(#paint2_linear_915_3659)"/>
</g>
</g>
<g clip-path="url(#clip1_915_3659)">
<path d="M170.186 35.6742C169.573 36.4463 168.33 36.0232 168.315 35.0374L168.099 20.6177H177.795C179.551 20.6177 180.53 22.6461 179.438 24.0214L170.186 35.6742Z" fill="url(#paint3_linear_915_3659)"/>
<path d="M170.186 35.6742C169.573 36.4463 168.33 36.0232 168.315 35.0374L168.099 20.6177H177.795C179.551 20.6177 180.53 22.6461 179.438 24.0214L170.186 35.6742Z" fill="url(#paint4_linear_915_3659)" fill-opacity="0.2"/>
<path d="M166.243 12.4715C166.856 11.6993 168.099 12.1224 168.114 13.1083L168.208 27.528H158.634C156.878 27.528 155.898 25.4996 156.99 24.1242L166.243 12.4715Z" fill="#3ECF8E"/>
</g>
<g clip-path="url(#clip2_915_3659)">
<path d="M240.156 36.0731C246.784 36.0731 252.157 30.7004 252.157 24.0729C252.157 17.4454 246.784 12.0728 240.156 12.0728C233.529 12.0728 228.156 17.4454 228.156 24.0729C228.156 30.7004 233.529 36.0731 240.156 36.0731Z" fill="black"/>
<path d="M248.091 33.0758L237.375 19.2729H235.356V28.8691H236.972V21.3242L246.823 34.0525C247.267 33.7555 247.69 33.4292 248.091 33.0758Z" fill="url(#paint5_linear_915_3659)"/>
<path d="M243.49 19.2729H245.09V28.8731H243.49V19.2729Z" fill="url(#paint6_linear_915_3659)"/>
</g>
<g clip-path="url(#clip3_915_3659)">
<path d="M324.156 30.6692C323.283 30.8912 322.743 30.679 322.259 29.9515L318.813 25.1845L318.315 24.5245L314.292 29.9672C313.832 30.622 313.35 30.907 312.492 30.6752L317.644 23.7587L312.847 17.5112C313.672 17.3507 314.242 17.4325 314.748 18.1712L318.322 22.9975L321.922 18.1975C322.383 17.5427 322.879 17.2937 323.707 17.5352L321.847 20.0012L319.327 23.2825C319.027 23.6575 319.068 23.914 319.344 24.2762L324.156 30.6692ZM300.162 23.6432L300.584 21.5702C301.731 17.4677 306.434 15.763 309.677 18.298C311.572 19.789 312.043 21.898 311.949 24.2605H301.266C301.106 28.513 304.167 31.0795 308.069 29.77C309.438 29.3102 310.244 28.2385 310.647 26.8975C310.852 26.2255 311.191 26.1205 311.823 26.3125C311.5 27.9895 310.773 29.3905 309.235 30.2672C306.938 31.5797 303.659 31.1552 301.934 29.3312C300.906 28.273 300.482 26.932 300.291 25.498C300.261 25.261 300.201 25.0352 300.156 24.808C300.16 24.42 300.162 24.032 300.162 23.644V23.6432ZM301.286 23.3582H310.94C310.877 20.2832 308.962 18.0992 306.345 18.0805C303.473 18.058 301.41 20.1902 301.286 23.3582Z" fill="black"/>
</g>
<g clip-path="url(#clip4_915_3659)">
<path d="M390.531 12.0728H377.781C374.675 12.0728 372.156 14.5912 372.156 17.6978V30.4478C372.156 33.5544 374.675 36.0728 377.781 36.0728H390.531C393.638 36.0728 396.156 33.5544 396.156 30.4478V17.6978C396.156 14.5912 393.638 12.0728 390.531 12.0728Z" fill="#242938"/>
<path d="M384.156 15.2603L393.062 30.7152H375.25L384.156 15.2603Z" fill="white"/>
</g>
<g clip-path="url(#clip5_915_3659)">
<path d="M456.156 29.9142C462.525 29.9142 467.687 27.2988 467.687 24.0726C467.687 20.8463 462.525 18.231 456.156 18.231C449.788 18.231 444.625 20.8463 444.625 24.0726C444.625 27.2988 449.788 29.9142 456.156 29.9142Z" fill="#6181B6"/>
<path d="M458.491 25.9603L459.064 23.0177C459.194 22.3537 459.086 21.859 458.743 21.5464C458.413 21.2426 457.853 21.095 457.028 21.095H456.039L456.321 19.6368C456.33 19.5804 456.317 19.524 456.282 19.4806C456.247 19.4373 456.196 19.4111 456.139 19.4111H454.772C454.681 19.4111 454.607 19.4763 454.59 19.563L453.982 22.6878C453.926 22.3362 453.791 22.0324 453.574 21.785C453.175 21.325 452.537 21.095 451.691 21.095H449.039C448.948 21.095 448.874 21.1602 448.856 21.2469L447.624 27.5702C447.615 27.6268 447.628 27.6832 447.663 27.7266C447.698 27.7699 447.75 27.7961 447.806 27.7961H449.186C449.278 27.7961 449.351 27.7307 449.369 27.6442L449.668 26.112H450.692C451.231 26.112 451.682 26.0556 452.038 25.9384C452.398 25.8211 452.732 25.6216 453.023 25.3482C453.262 25.1311 453.457 24.8882 453.605 24.6235L453.357 25.8865C453.348 25.9427 453.362 25.9993 453.396 26.0425C453.431 26.086 453.483 26.112 453.54 26.112H454.907C454.998 26.112 455.072 26.0468 455.089 25.9601L455.762 22.4882H456.699C457.098 22.4882 457.216 22.5663 457.246 22.6011C457.276 22.6315 457.337 22.7444 457.268 23.0872L456.734 25.8908C456.725 25.9474 456.738 26.0036 456.773 26.047C456.808 26.0903 456.86 26.1165 456.916 26.1165H458.305C458.396 26.1122 458.474 26.0514 458.491 25.9603ZM452.155 23.5298C452.068 23.9724 451.907 24.2848 451.673 24.4671C451.434 24.6495 451.056 24.7405 450.545 24.7405H449.932L450.375 22.4664H451.165C451.747 22.4664 451.981 22.5923 452.072 22.6964C452.202 22.8398 452.233 23.1262 452.155 23.5298Z" fill="white"/>
<path d="M464.337 21.7852C463.938 21.3252 463.3 21.0952 462.453 21.0952H459.802C459.711 21.0952 459.637 21.1604 459.619 21.2471L458.391 27.5748C458.382 27.6311 458.396 27.6877 458.43 27.7309C458.465 27.7744 458.517 27.8004 458.573 27.8004H459.954C460.045 27.8004 460.118 27.7353 460.136 27.6485L460.435 26.1165H461.46C461.998 26.1165 462.449 26.06 462.805 25.9427C463.165 25.8258 463.499 25.626 463.79 25.3527C464.033 25.127 464.237 24.8753 464.389 24.6018C464.541 24.3285 464.649 24.0247 464.714 23.6991C464.867 22.8918 464.741 22.2496 464.337 21.7852ZM462.909 23.5298C462.823 23.9724 462.662 24.2848 462.428 24.4672C462.189 24.6495 461.811 24.7405 461.299 24.7405H460.687L461.13 22.4664H461.92C462.501 22.4664 462.736 22.5923 462.827 22.6964C462.961 22.8398 462.987 23.1263 462.909 23.5298Z" fill="white"/>
</g>
<g clip-path="url(#clip6_915_3659)">
<path d="M540.143 17.2871C540.152 17.32 540.156 17.354 540.156 17.3881V22.6914C540.156 22.8299 540.082 22.9579 539.962 23.0268L535.511 25.5895V30.669C535.511 30.8072 535.437 30.9348 535.317 31.0044L526.026 36.3531C526.005 36.3652 525.982 36.3729 525.958 36.3811C525.95 36.384 525.942 36.3894 525.932 36.3918C525.867 36.4089 525.799 36.4089 525.734 36.3918C525.724 36.3889 525.714 36.3831 525.704 36.3792C525.682 36.3715 525.66 36.3647 525.64 36.3531L516.351 31.0044C516.23 30.9354 516.156 30.8075 516.156 30.669V14.7592C516.156 14.7244 516.161 14.6906 516.17 14.6577C516.173 14.6466 516.179 14.6364 516.183 14.6253C516.191 14.605 516.197 14.5842 516.208 14.5654C516.215 14.5528 516.226 14.5427 516.235 14.5311C516.246 14.5156 516.256 14.4996 516.269 14.4861C516.28 14.475 516.294 14.4668 516.307 14.4571C516.321 14.4455 516.334 14.4329 516.35 14.4238H516.35L520.995 11.7494C521.115 11.6805 521.262 11.6805 521.382 11.7494L526.027 14.4238H526.028C526.043 14.4334 526.056 14.4455 526.07 14.4566C526.083 14.4663 526.097 14.475 526.108 14.4856C526.121 14.4996 526.131 14.5156 526.143 14.5311C526.151 14.5427 526.162 14.5528 526.169 14.5654C526.18 14.5847 526.186 14.605 526.194 14.6253C526.198 14.6364 526.205 14.6466 526.207 14.6582C526.216 14.6911 526.221 14.7251 526.221 14.7592V24.6963L530.092 22.4676V17.3876C530.092 17.3538 530.096 17.3195 530.105 17.2871C530.108 17.2755 530.115 17.2653 530.119 17.2542C530.126 17.2339 530.133 17.2131 530.144 17.1943C530.151 17.1817 530.162 17.1716 530.17 17.16C530.181 17.1445 530.191 17.1286 530.205 17.115C530.216 17.1039 530.23 17.0957 530.242 17.086C530.257 17.0744 530.269 17.0619 530.285 17.0527H530.285L534.931 14.3783C535.05 14.3093 535.198 14.3093 535.317 14.3783L539.962 17.0527C539.979 17.0623 539.991 17.0744 540.006 17.0855C540.018 17.0952 540.032 17.1039 540.043 17.1145C540.057 17.1286 540.066 17.1445 540.078 17.16C540.087 17.1716 540.097 17.1817 540.104 17.1943C540.115 17.2131 540.121 17.2339 540.129 17.2542C540.134 17.2653 540.14 17.2755 540.143 17.2871ZM539.382 22.4676V18.0575L537.756 18.9933L535.511 20.2862V24.6963L539.382 22.4676H539.382ZM534.737 30.4452V26.0322L532.528 27.2938L526.22 30.8937V35.3482L534.737 30.4452ZM516.931 15.4286V30.4452L525.446 35.3478V30.8942L520.997 28.3765L520.996 28.3755L520.994 28.3745C520.979 28.3658 520.966 28.3533 520.952 28.3426C520.94 28.333 520.926 28.3252 520.916 28.3146L520.915 28.3132C520.902 28.3011 520.894 28.2861 520.883 28.2725C520.873 28.2595 520.862 28.2484 520.854 28.2348L520.853 28.2334C520.845 28.2189 520.839 28.2015 520.833 28.1851C520.827 28.1706 520.819 28.157 520.815 28.1416V28.1411C520.81 28.1227 520.809 28.1034 520.807 28.0845C520.805 28.07 520.801 28.0555 520.801 28.041V28.0401V17.6573L518.556 16.3639L516.931 15.4291V15.4286ZM521.189 12.5315L517.319 14.7592L521.188 16.9869L525.058 14.7587L521.188 12.5315H521.189ZM523.201 26.4344L525.447 25.1419V15.4286L523.821 16.3644L521.576 17.6573V27.3706L523.201 26.4344ZM535.124 15.1604L531.254 17.3881L535.124 19.6158L538.993 17.3876L535.124 15.1604ZM534.737 20.2862L532.491 18.9933L530.866 18.0575V22.4676L533.111 23.76L534.737 24.6963V20.2862ZM525.833 30.2243L531.509 26.984L534.346 25.3647L530.479 23.1385L526.027 25.7016L521.969 28.0376L525.833 30.2243Z" fill="#FF2D20"/>
</g>
<g clip-path="url(#clip7_915_3659)">
<path d="M594.141 14.5728C592.772 14.5728 591.758 15.7635 591.804 17.0549C591.847 18.2955 591.791 19.9023 591.384 21.2127C590.975 22.5269 590.284 23.3594 589.156 23.4662V24.6729C590.284 24.7798 590.975 25.6123 591.384 26.9265C591.791 28.2369 591.847 29.8437 591.804 31.0843C591.758 32.3755 592.772 33.5664 594.141 33.5664H608.173C609.543 33.5664 610.556 32.3757 610.51 31.0843C610.467 29.8437 610.523 28.2369 610.931 26.9265C611.339 25.6123 612.028 24.7798 613.156 24.6729V23.4662C612.028 23.3594 611.339 22.5269 610.931 21.2127C610.523 19.9025 610.467 18.2955 610.51 17.0549C610.556 15.7637 609.543 14.5728 608.173 14.5728H594.141H594.141ZM605.427 26.2646C605.427 28.0427 604.092 29.1211 601.877 29.1211H598.105C597.881 29.1211 597.699 28.9402 597.699 28.717V19.4222C597.699 19.199 597.881 19.0181 598.105 19.0181H601.855C603.703 19.0181 604.915 20.0122 604.915 21.5386C604.915 22.6099 604.1 23.5691 603.06 23.737V23.793C604.475 23.9471 605.427 24.9203 605.427 26.2646ZM601.466 20.2991H599.315V23.3167H601.126C602.526 23.3167 603.299 22.7566 603.299 21.7554C603.299 20.8172 602.635 20.2991 601.466 20.2991ZM599.315 24.5141V27.8396H601.545C603.002 27.8396 603.775 27.2585 603.775 26.1664C603.775 25.074 602.981 24.5139 601.451 24.5139H599.315V24.5141Z" fill="#7E13F8"/>
</g>
<g clip-path="url(#clip8_915_3659)">
<path fill-rule="evenodd" clip-rule="evenodd" d="M684.263 30.7675C682.958 30.7311 681.945 30.8649 681.096 31.2219C680.852 31.3201 680.46 31.3201 680.428 31.6277C680.558 31.7567 680.574 31.968 680.688 32.1468C680.884 32.4715 681.227 32.9089 681.537 33.1358L682.582 33.8822C683.218 34.2712 683.936 34.4984 684.556 34.8878C684.916 35.115 685.275 35.407 685.634 35.6506C685.817 35.7804 685.928 35.9916 686.156 36.0723V36.0233C686.042 35.8778 686.009 35.667 685.895 35.5041L685.405 35.034C684.932 34.4014 684.344 33.8495 683.708 33.3957C683.185 33.0387 682.043 32.5522 681.831 31.9523L681.799 31.916C682.157 31.8796 682.582 31.7535 682.925 31.656C683.48 31.5106 683.986 31.5426 684.556 31.3968L685.34 31.1696V31.0241C685.047 30.7322 684.835 30.3428 684.525 30.0672C683.692 29.3535 682.778 28.6558 681.831 28.0719C681.325 27.7476 680.672 27.5364 680.133 27.2612C679.937 27.1637 679.611 27.115 679.497 26.9529C679.202 26.5966 679.04 26.1257 678.827 25.7036L677.489 22.8812C677.195 22.2486 677.015 21.616 676.657 21.0321C674.975 18.2744 673.147 16.6038 670.34 14.9652C669.736 14.6245 669.018 14.478 668.254 14.2998L667.03 14.2344C666.769 14.121 666.508 13.8126 666.279 13.6665C665.349 13.0826 662.949 11.8174 662.263 13.4847C661.822 14.5391 662.916 15.5771 663.288 16.1126C663.566 16.4856 663.924 16.9074 664.121 17.3291C664.23 17.6047 664.267 17.897 664.382 18.189C664.642 18.9026 664.887 19.6978 665.23 20.3631C665.413 20.7038 665.605 21.0612 665.834 21.3691C665.964 21.5509 666.193 21.6287 666.242 21.9207C666.013 22.2453 665.997 22.7314 665.867 23.1375C665.279 24.9707 665.508 27.2415 666.34 28.5911C666.601 28.9965 667.218 29.8891 668.054 29.548C668.789 29.2561 668.625 28.3315 668.837 27.5204C668.886 27.3259 668.854 27.1961 668.951 27.0659V27.1023L669.621 28.4486C670.127 29.2434 671.008 30.0709 671.743 30.6228C672.134 30.9147 672.444 31.4179 672.934 31.596V31.547H672.902C672.804 31.4015 672.656 31.3361 672.526 31.2226C672.232 30.9307 671.906 30.5737 671.677 30.2494C670.992 29.3412 670.388 28.3352 669.849 27.2972C669.588 26.7943 669.359 26.2428 669.148 25.74C669.049 25.5451 669.049 25.2528 668.886 25.1561C668.641 25.5124 668.282 25.8214 668.102 26.2592C667.792 26.9565 667.76 27.8163 667.646 28.7085C667.58 28.7249 667.609 28.7085 667.58 28.7449C667.058 28.6155 666.878 28.0796 666.682 27.6258C666.193 26.474 666.111 24.6249 666.535 23.2946C666.649 22.9539 667.14 21.8832 666.944 21.5589C666.845 21.2506 666.519 21.0724 666.339 20.8289C666.127 20.5205 665.899 20.1315 665.752 19.7909C665.361 18.8819 665.165 17.8766 664.74 16.9681C664.544 16.5463 664.202 16.1082 663.924 15.7192C663.614 15.2811 663.272 14.9728 663.026 14.454C662.945 14.2722 662.831 13.9835 662.961 13.7886C662.994 13.6589 663.059 13.6069 663.189 13.5778C663.401 13.396 664.006 13.6265 664.218 13.7232C664.822 13.9668 665.328 14.1937 665.834 14.534C666.062 14.6961 666.307 15.0044 666.601 15.0859H666.944C667.467 15.1993 668.054 15.1222 668.543 15.2677C669.408 15.544 670.191 15.949 670.894 16.3875C673.032 17.7338 674.795 19.648 675.986 21.9356C676.182 22.3086 676.264 22.6493 676.444 23.0386C676.787 23.8338 677.211 24.6445 677.553 25.4237C677.896 26.1861 678.223 26.9652 678.712 27.5978C678.957 27.9385 679.936 28.1167 680.377 28.2952C680.703 28.4406 681.209 28.5715 681.504 28.7496C682.058 29.0903 682.613 29.4797 683.135 29.8527C683.396 30.0469 684.213 30.4526 684.261 30.7762L684.263 30.7675ZM667.617 16.671C667.392 16.6691 667.167 16.6963 666.949 16.7521V16.7885H666.981C667.111 17.0481 667.34 17.2266 667.503 17.4538L667.879 18.2326L667.911 18.1962C668.14 18.0341 668.254 17.7745 668.254 17.3855C668.156 17.272 668.14 17.1582 668.059 17.0448C667.961 16.8826 667.748 16.8012 667.617 16.6718V16.671Z" fill="#00678C"/>
</g>
<g clip-path="url(#clip9_915_3659)">
<path d="M747.087 30.4103C747.077 30.279 747.07 30.1937 747.07 30.1937C747.07 30.1937 746.672 27.511 746.199 26.7105C746.124 26.5835 746.207 26.0624 746.416 25.2903C746.538 25.5017 747.054 26.406 747.158 26.6973C747.275 27.0268 747.299 27.1211 747.299 27.1211C747.299 27.1211 747.016 25.6648 746.552 24.8149C746.665 24.4362 746.785 24.0598 746.913 23.6857C747.089 23.9943 747.51 24.7417 747.603 25.0009C747.621 25.0542 747.637 25.0994 747.651 25.1409L747.665 25.0662C747.559 24.615 747.35 23.8298 747.064 23.2498C747.698 19.9475 749.862 15.5338 752.08 13.5645H737.609C736.639 13.5645 735.846 14.3582 735.846 15.3281V31.287C735.846 32.2567 736.639 33.0502 737.609 33.0502H747.14C747.072 32.2184 747.049 31.298 747.087 30.4103" fill="#0F80CC"/>
<path d="M746.416 25.291C746.538 25.5022 747.054 26.4064 747.158 26.6978C747.275 27.0272 747.299 27.1216 747.299 27.1216C747.299 27.1216 747.016 25.6653 746.552 24.8154C746.653 24.4719 746.775 24.0921 746.913 23.6862C747.074 23.9685 747.439 24.6169 747.571 24.9242L747.586 24.7507C747.469 24.3008 747.291 23.7118 747.064 23.2503C747.648 20.2099 749.529 16.2288 751.555 14.0795H737.609C737.278 14.08 736.961 14.2117 736.727 14.4459C736.492 14.68 736.361 14.9975 736.36 15.3286V30.123C739.519 28.9109 743.327 27.8029 746.604 27.8504C746.483 27.3812 746.344 26.9569 746.199 26.7109C746.124 26.584 746.207 26.063 746.416 25.291Z" fill="url(#paint7_linear_915_3659)"/>
<path d="M755.456 13.0425C754.465 12.1586 753.265 12.5138 752.08 13.5647C751.905 13.721 751.729 13.8941 751.555 14.0792C749.529 16.2285 747.648 20.2096 747.064 23.25C747.291 23.7115 747.469 24.3006 747.586 24.7505C747.616 24.8659 747.643 24.9743 747.665 25.0664C747.716 25.2846 747.744 25.4259 747.744 25.4259C747.744 25.4259 747.726 25.3572 747.651 25.1411C747.637 25.0997 747.621 25.0544 747.603 25.0012C747.595 24.9791 747.584 24.9524 747.571 24.9239C747.439 24.6167 747.074 23.9682 746.913 23.6859C746.785 24.06 746.665 24.4365 746.552 24.8152C747.016 25.665 747.299 27.1214 747.299 27.1214C747.299 27.1214 747.275 27.027 747.158 26.6976C747.054 26.4062 746.538 25.502 746.416 25.2906C746.207 26.0626 746.124 26.5838 746.199 26.7107C746.344 26.9566 746.483 27.3809 746.604 27.8501C746.879 28.9072 747.07 30.1941 747.07 30.1941C747.07 30.1941 747.077 30.2794 747.087 30.4105C747.049 31.2983 747.072 32.2186 747.14 33.0505C747.231 34.1517 747.403 35.0978 747.621 35.604L747.77 35.5231C747.449 34.5256 747.319 33.2184 747.376 31.7108C747.462 29.4065 747.992 26.6276 748.972 23.7312C750.627 19.3588 752.924 15.8508 755.026 14.1754C753.11 15.9056 750.517 21.5063 749.741 23.5804C748.872 25.9028 748.256 28.0823 747.885 30.1703C748.525 28.2128 750.596 27.3713 750.596 27.3713C750.596 27.3713 751.612 26.1188 752.798 24.3293C752.087 24.4914 750.92 24.7689 750.529 24.9333C749.952 25.1753 749.797 25.2578 749.797 25.2578C749.797 25.2578 751.665 24.12 753.268 23.6048C755.473 20.1327 757.874 15.2002 755.456 13.0425Z" fill="#003B57"/>
</g>
<g clip-path="url(#clip10_915_3659)">
<g opacity="0.8">
<path d="M824.089 18.0742L812.118 30.0123L812.178 30.0718H824.193L830.156 24.1251L824.089 18.0742Z" fill="#D8DEE9"/>
<path d="M812.223 18.0742L824.234 30.0523L824.213 30.0718H812.119L806.156 24.1251L812.223 18.0742Z" fill="#8AC0CF"/>
</g>
</g>
<defs>
<linearGradient id="paint0_linear_915_3659" x1="1720.68" y1="482.23" x2="569.12" y2="2316.73" gradientUnits="userSpaceOnUse">
<stop stop-color="#41873F"/>
<stop offset="0.3288" stop-color="#418B3D"/>
<stop offset="0.6352" stop-color="#419637"/>
<stop offset="0.9319" stop-color="#3FA92D"/>
<stop offset="1" stop-color="#3FAE2A"/>
</linearGradient>
<linearGradient id="paint1_linear_915_3659" x1="1098.79" y1="1498" x2="4021.47" y2="-111.937" gradientUnits="userSpaceOnUse">
<stop offset="0.1376" stop-color="#41873F"/>
<stop offset="0.4032" stop-color="#54A044"/>
<stop offset="0.7136" stop-color="#66B848"/>
<stop offset="0.9081" stop-color="#6CC04A"/>
</linearGradient>
<linearGradient id="paint2_linear_915_3659" x1="-17.9697" y1="1359.62" x2="2461.36" y2="1359.62" gradientUnits="userSpaceOnUse">
<stop offset="0.0919165" stop-color="#6CC04A"/>
<stop offset="0.2864" stop-color="#66B848"/>
<stop offset="0.5968" stop-color="#54A044"/>
<stop offset="0.8624" stop-color="#41873F"/>
</linearGradient>
<linearGradient id="paint3_linear_915_3659" x1="168.099" y1="23.8149" x2="176.716" y2="27.429" gradientUnits="userSpaceOnUse">
<stop stop-color="#249361"/>
<stop offset="1" stop-color="#3ECF8E"/>
</linearGradient>
<linearGradient id="paint4_linear_915_3659" x1="164.278" y1="18.584" x2="168.208" y2="25.9819" gradientUnits="userSpaceOnUse">
<stop/>
<stop offset="1" stop-opacity="0"/>
</linearGradient>
<linearGradient id="paint5_linear_915_3659" x1="242.69" y1="27.6064" x2="247.423" y2="33.4731" gradientUnits="userSpaceOnUse">
<stop stop-color="white"/>
<stop offset="1" stop-color="white" stop-opacity="0"/>
</linearGradient>
<linearGradient id="paint6_linear_915_3659" x1="244.29" y1="19.2729" x2="244.263" y2="26.323" gradientUnits="userSpaceOnUse">
<stop stop-color="white"/>
<stop offset="1" stop-color="white" stop-opacity="0"/>
</linearGradient>
<linearGradient id="paint7_linear_915_3659" x1="745.121" y1="14.4074" x2="745.121" y2="29.2309" gradientUnits="userSpaceOnUse">
<stop stop-color="#97D9F6"/>
<stop offset="0.92" stop-color="#0F80CC"/>
<stop offset="1" stop-color="#0F80CC"/>
</linearGradient>
<clipPath id="clip0_915_3659">
<rect width="24" height="27" fill="white" transform="translate(84.1562 10.5728)"/>
</clipPath>
<clipPath id="clip1_915_3659">
<rect width="24" height="24" fill="white" transform="translate(156.156 12.0728)"/>
</clipPath>
<clipPath id="clip2_915_3659">
<rect width="24" height="24" fill="white" transform="translate(228.156 12.0728)"/>
</clipPath>
<clipPath id="clip3_915_3659">
<rect width="24" height="24" fill="white" transform="translate(300.156 12.0728)"/>
</clipPath>
<clipPath id="clip4_915_3659">
<rect width="24" height="24" fill="white" transform="translate(372.156 12.0728)"/>
</clipPath>
<clipPath id="clip5_915_3659">
<rect width="24" height="12.6207" fill="white" transform="translate(444.156 17.7622)"/>
</clipPath>
<clipPath id="clip6_915_3659">
<rect width="24" height="24.75" fill="white" transform="translate(516.156 11.6978)"/>
</clipPath>
<clipPath id="clip7_915_3659">
<rect width="24" height="19" fill="white" transform="translate(589.156 14.5728)"/>
</clipPath>
<clipPath id="clip8_915_3659">
<rect width="24" height="24" fill="white" transform="translate(662.156 12.0728)"/>
</clipPath>
<clipPath id="clip9_915_3659">
<rect width="24" height="24" fill="white" transform="translate(734.156 12.0728)"/>
</clipPath>
<clipPath id="clip10_915_3659">
<rect width="24" height="12" fill="white" transform="translate(806.156 18.0728)"/>
</clipPath>
</defs>
</svg>
