<svg width="83" height="32" viewBox="0 0 83 32" fill="none" xmlns="http://www.w3.org/2000/svg">
<path d="M10.653 18.9733C10.5764 19.3244 10.8438 19.6565 11.2031 19.6565H17.3115C17.6708 19.6565 17.9382 19.9886 17.8615 20.3396L17.3066 22.8815C17.2501 23.1401 17.0212 23.3245 16.7565 23.3245H9.97261C9.80217 23.3245 9.64091 23.2473 9.53403 23.1145L7.88925 21.0715C7.55603 20.6576 6.88763 20.8932 6.88763 21.4246V22.7311C6.88763 23.0421 6.63555 23.2942 6.32459 23.2942H3.69677C3.38581 23.2942 3.13373 23.0421 3.13373 22.7311V20.1043C3.13373 19.7933 3.38581 19.5413 3.69677 19.5413H6.32197C6.58664 19.5413 6.81558 19.3569 6.87205 19.0983L8.70955 10.6834C8.73695 10.5579 8.80644 10.4456 8.90648 10.365L10.8746 8.78004C10.9747 8.69946 11.0993 8.65552 11.2278 8.65552H12.2069C12.5663 8.65552 12.8337 8.9876 12.757 9.33868L10.653 18.9733ZM24.0912 10.8917C24.4245 11.3054 25.0927 11.0697 25.0927 10.5385V9.21856C25.0927 8.9076 25.3448 8.65552 25.6558 8.65552H28.2826C28.5936 8.65552 28.8456 8.9076 28.8456 9.21856V11.8464C28.8456 12.1573 28.5936 12.4094 28.2826 12.4094H25.6779C25.4132 12.4094 25.1843 12.5937 25.1278 12.8523L24.4423 15.9895L23.6415 19.6575L23.2826 21.2968C23.2551 21.4222 23.1857 21.5344 23.0858 21.6148L21.1185 23.1999C21.0184 23.2805 20.8937 23.3245 20.7652 23.3245H19.7861C19.4268 23.3245 19.1594 22.9924 19.236 22.6413L19.8876 19.6575L20.6884 15.9895L21.34 13.0057C21.4167 12.6546 21.1493 12.3225 20.7899 12.3225H14.6816C14.3223 12.3225 14.0549 11.9904 14.1315 11.6393L14.6864 9.09844C14.7429 8.83986 14.9718 8.65552 15.2365 8.65552H22.0205C22.1909 8.65552 22.3521 8.73267 22.459 8.86536L24.0912 10.8917Z" fill="url(#paint0_linear_176_1062)"/>
<path d="M35.5933 14V8.6H36.6133V13.12H39.44V14H35.5933ZM40.0859 14V10H41.0793V14H40.0859ZM40.5793 9.56C40.4237 9.56 40.2904 9.50667 40.1793 9.4C40.0726 9.28889 40.0193 9.15556 40.0193 9C40.0193 8.84444 40.0726 8.71333 40.1793 8.60667C40.2904 8.49556 40.4237 8.44 40.5793 8.44C40.7348 8.44 40.8659 8.49556 40.9726 8.60667C41.0837 8.71333 41.1393 8.84444 41.1393 9C41.1393 9.15556 41.0837 9.28889 40.9726 9.4C40.8659 9.50667 40.7348 9.56 40.5793 9.56ZM43.3236 14L41.6103 10H42.657L43.8436 12.88H43.8703L45.037 10H46.057L44.3436 14H43.3236ZM46.5938 14V10H47.5871V14H46.5938ZM47.0871 9.56C46.9315 9.56 46.7982 9.50667 46.6871 9.4C46.5804 9.28889 46.5271 9.15556 46.5271 9C46.5271 8.84444 46.5804 8.71333 46.6871 8.60667C46.7982 8.49556 46.9315 8.44 47.0871 8.44C47.2426 8.44 47.3738 8.49556 47.4804 8.60667C47.5915 8.71333 47.6471 8.84444 47.6471 9C47.6471 9.15556 47.5915 9.28889 47.4804 9.4C47.3738 9.50667 47.2426 9.56 47.0871 9.56ZM48.7981 14V10.9933H48.3048V10H49.3248V10.64H49.6048C49.7559 10.4133 49.9492 10.2378 50.1848 10.1133C50.4203 9.98889 50.7092 9.92667 51.0515 9.92667C51.5981 9.92667 52.0203 10.0778 52.3181 10.38C52.6203 10.6822 52.7715 11.0844 52.7715 11.5867V14H51.7781V11.7733C51.7781 11.4578 51.6937 11.2178 51.5248 11.0533C51.3603 10.8889 51.1137 10.8067 50.7848 10.8067C50.4648 10.8067 50.2181 10.8889 50.0448 11.0533C49.8759 11.2178 49.7915 11.4578 49.7915 11.7733V14H48.7981ZM55.5521 15.68C54.9654 15.68 54.4876 15.56 54.1188 15.32C53.7543 15.0844 53.5388 14.7533 53.4721 14.3267H54.5188C54.6299 14.6956 54.9632 14.88 55.5187 14.88C55.8921 14.88 56.1765 14.7933 56.3721 14.62C56.5676 14.4511 56.6654 14.2089 56.6654 13.8933V13.32H56.6321C56.5165 13.5422 56.3499 13.7111 56.1321 13.8267C55.9143 13.9422 55.6543 14 55.3521 14C54.9788 14 54.6521 13.9178 54.3721 13.7533C54.0921 13.5844 53.8765 13.3467 53.7254 13.04C53.5743 12.7333 53.4988 12.3733 53.4988 11.96C53.4988 11.3378 53.6676 10.8422 54.0054 10.4733C54.3476 10.1044 54.8188 9.92 55.4188 9.92C55.7476 9.92 56.0299 9.98222 56.2654 10.1067C56.501 10.2311 56.6899 10.4089 56.8321 10.64H57.1121V10H58.1321V10.9933H57.6321V13.9067C57.6321 14.4711 57.4521 14.9067 57.0921 15.2133C56.7321 15.5244 56.2188 15.68 55.5521 15.68ZM55.5988 13.1333C55.9188 13.1333 56.1721 13.0444 56.3588 12.8667C56.5454 12.6844 56.6388 12.44 56.6388 12.1333V11.7733C56.6388 11.4711 56.5432 11.2311 56.3521 11.0533C56.1654 10.8756 55.9143 10.7867 55.5988 10.7867C55.2476 10.7867 54.9743 10.8911 54.7788 11.1C54.5876 11.3044 54.4921 11.5933 54.4921 11.9667C54.4921 12.34 54.5876 12.6289 54.7788 12.8333C54.9743 13.0333 55.2476 13.1333 55.5988 13.1333ZM63.2479 14H62.2479V9.48H60.4412V8.6H65.0546V9.48H63.2479V14ZM66.9002 14.08C66.4735 14.08 66.1002 13.9956 65.7802 13.8267C65.4647 13.6533 65.2202 13.4111 65.0469 13.1C64.878 12.7844 64.7935 12.4133 64.7935 11.9867C64.7935 11.56 64.878 11.1933 65.0469 10.8867C65.2158 10.5756 65.4558 10.3378 65.7669 10.1733C66.078 10.0044 66.4424 9.92 66.8602 9.92C67.2691 9.92 67.6202 10 67.9135 10.16C68.2069 10.3156 68.4335 10.5422 68.5935 10.84C68.7535 11.1333 68.8335 11.4822 68.8335 11.8867V12.2333H65.7469C65.7869 12.5711 65.9047 12.8311 66.1002 13.0133C66.3002 13.1911 66.5647 13.28 66.8935 13.28C67.138 13.28 67.3358 13.2356 67.4869 13.1467C67.6424 13.0533 67.7513 12.9156 67.8135 12.7333H68.8135C68.7202 13.1556 68.5047 13.4867 68.1669 13.7267C67.8335 13.9622 67.4113 14.08 66.9002 14.08ZM65.7735 11.56H67.8802C67.8447 11.2844 67.738 11.0756 67.5602 10.9333C67.3869 10.7867 67.1535 10.7133 66.8602 10.7133C66.5713 10.7133 66.3335 10.7867 66.1469 10.9333C65.9602 11.08 65.8358 11.2889 65.7735 11.56ZM71.3981 14.08C70.9848 14.08 70.6226 13.9956 70.3115 13.8267C70.0003 13.6533 69.7581 13.4111 69.5848 13.1C69.4115 12.7889 69.3248 12.4222 69.3248 12C69.3248 11.5778 69.4092 11.2111 69.5781 10.9C69.7515 10.5889 69.9937 10.3489 70.3048 10.18C70.6159 10.0067 70.9803 9.92 71.3981 9.92C71.9137 9.92 72.3403 10.0511 72.6781 10.3133C73.0159 10.5711 73.2292 10.9311 73.3181 11.3933H72.3248C72.2581 11.1933 72.147 11.0422 71.9915 10.94C71.8359 10.8378 71.6381 10.7867 71.3981 10.7867C71.0692 10.7867 70.807 10.8933 70.6115 11.1067C70.4159 11.3156 70.3181 11.6133 70.3181 12C70.3181 12.3867 70.4159 12.6867 70.6115 12.9C70.807 13.1089 71.0692 13.2133 71.3981 13.2133C71.9137 13.2133 72.2292 12.9911 72.3448 12.5467H73.3448C73.2603 13.0311 73.0492 13.4089 72.7115 13.68C72.3737 13.9467 71.9359 14.08 71.3981 14.08ZM73.8807 14V8.4H74.8741V10.5933H74.9007C75.0296 10.3756 75.2052 10.2111 75.4274 10.1C75.6496 9.98444 75.9118 9.92667 76.2141 9.92667C76.7163 9.92667 77.1141 10.0778 77.4074 10.38C77.7052 10.6822 77.8541 11.0844 77.8541 11.5867V14H76.8607V11.7733C76.8607 11.4578 76.7763 11.2178 76.6074 11.0533C76.4385 10.8889 76.1918 10.8067 75.8674 10.8067C75.543 10.8067 75.2963 10.8889 75.1274 11.0533C74.9585 11.2178 74.8741 11.4578 74.8741 11.7733V14H73.8807ZM38.0467 24.0933C37.5 24.0933 37.02 23.98 36.6067 23.7533C36.1978 23.5222 35.88 23.1978 35.6533 22.78C35.4311 22.3622 35.32 21.8711 35.32 21.3067C35.32 20.7422 35.4311 20.2511 35.6533 19.8333C35.88 19.4156 36.1978 19.0933 36.6067 18.8667C37.02 18.6356 37.5 18.52 38.0467 18.52C38.4822 18.52 38.8689 18.5933 39.2067 18.74C39.5444 18.8867 39.8222 19.1 40.04 19.38C40.2578 19.6556 40.3978 19.9867 40.46 20.3733H39.4133C39.3556 20.0667 39.2067 19.8311 38.9667 19.6667C38.7267 19.4978 38.42 19.4133 38.0467 19.4133C37.5133 19.4133 37.0933 19.5822 36.7867 19.92C36.48 20.2533 36.3267 20.7156 36.3267 21.3067C36.3267 21.8978 36.48 22.3622 36.7867 22.7C37.0933 23.0333 37.5133 23.2 38.0467 23.2C38.42 23.2 38.7267 23.1178 38.9667 22.9533C39.2067 22.7844 39.3556 22.5467 39.4133 22.24H40.46C40.3978 22.6267 40.2578 22.96 40.04 23.24C39.8222 23.5156 39.5444 23.7267 39.2067 23.8733C38.8689 24.02 38.4822 24.0933 38.0467 24.0933ZM41.357 24V20.9933H40.8636V20H41.877V20.7733H42.157C42.2681 20.5067 42.4392 20.3044 42.6703 20.1667C42.9014 20.0289 43.1659 19.96 43.4636 19.96H43.797V20.8133H43.417C43.0525 20.8133 42.7814 20.9178 42.6036 21.1267C42.4259 21.3356 42.337 21.6133 42.337 21.96V24H41.357ZM46.1033 24.08C45.6767 24.08 45.3033 23.9956 44.9833 23.8267C44.6678 23.6533 44.4233 23.4111 44.25 23.1C44.0811 22.7844 43.9967 22.4133 43.9967 21.9867C43.9967 21.56 44.0811 21.1933 44.25 20.8867C44.4189 20.5756 44.6589 20.3378 44.97 20.1733C45.2811 20.0044 45.6456 19.92 46.0633 19.92C46.4722 19.92 46.8233 20 47.1167 20.16C47.41 20.3156 47.6367 20.5422 47.7967 20.84C47.9567 21.1333 48.0367 21.4822 48.0367 21.8867V22.2333H44.95C44.99 22.5711 45.1078 22.8311 45.3033 23.0133C45.5033 23.1911 45.7678 23.28 46.0967 23.28C46.3411 23.28 46.5389 23.2356 46.69 23.1467C46.8456 23.0533 46.9544 22.9156 47.0167 22.7333H48.0167C47.9233 23.1556 47.7078 23.4867 47.37 23.7267C47.0367 23.9622 46.6144 24.08 46.1033 24.08ZM44.9767 21.56H47.0833C47.0478 21.2844 46.9411 21.0756 46.7633 20.9333C46.59 20.7867 46.3567 20.7133 46.0633 20.7133C45.7744 20.7133 45.5367 20.7867 45.35 20.9333C45.1633 21.08 45.0389 21.2889 44.9767 21.56ZM50.0146 24.0733C49.5479 24.0733 49.1812 23.96 48.9146 23.7333C48.6524 23.5067 48.5213 23.2067 48.5213 22.8333C48.5213 22.4422 48.6546 22.14 48.9212 21.9267C49.1924 21.7133 49.5813 21.6067 50.0879 21.6067H51.3079V21.4467C51.3079 20.9578 51.0235 20.7133 50.4546 20.7133C49.9701 20.7133 49.679 20.8867 49.5813 21.2333H48.5879C48.6724 20.8067 48.8746 20.4822 49.1946 20.26C49.5146 20.0333 49.9346 19.92 50.4546 19.92C51.0413 19.92 51.4879 20.0533 51.7946 20.32C52.1013 20.5822 52.2546 20.9667 52.2546 21.4733V23.0067H52.7279V24H51.7079V23.36H51.4279C51.2901 23.5867 51.1035 23.7622 50.8679 23.8867C50.6368 24.0111 50.3524 24.0733 50.0146 24.0733ZM50.1612 23.3067C50.379 23.3067 50.5746 23.2667 50.7479 23.1867C50.9213 23.1022 51.0568 22.9911 51.1546 22.8533C51.2568 22.7111 51.3079 22.5533 51.3079 22.38V22.2867H50.1413C49.6924 22.2867 49.4679 22.4533 49.4679 22.7867C49.4679 22.9511 49.5279 23.08 49.6479 23.1733C49.7724 23.2622 49.9435 23.3067 50.1612 23.3067ZM54.6065 24C54.3442 24 54.1398 23.9333 53.9931 23.8C53.8509 23.6667 53.7798 23.4644 53.7798 23.1933V20.7733H53.0731V20H53.7865V18.8H54.7598V20H55.7265V20.7733H54.7731V23.22H55.8198V24H54.6065ZM56.4766 24V20H57.4699V24H56.4766ZM56.9699 19.56C56.8143 19.56 56.681 19.5067 56.5699 19.4C56.4632 19.2889 56.4099 19.1556 56.4099 19C56.4099 18.8444 56.4632 18.7133 56.5699 18.6067C56.681 18.4956 56.8143 18.44 56.9699 18.44C57.1255 18.44 57.2566 18.4956 57.3632 18.6067C57.4743 18.7133 57.5299 18.8444 57.5299 19C57.5299 19.1556 57.4743 19.2889 57.3632 19.4C57.2566 19.5067 57.1255 19.56 56.9699 19.56ZM59.7143 24L58.0009 20H59.0476L60.2343 22.88H60.2609L61.4276 20H62.4476L60.7343 24H59.7143ZM64.7049 24.08C64.2782 24.08 63.9049 23.9956 63.5849 23.8267C63.2693 23.6533 63.0249 23.4111 62.8516 23.1C62.6827 22.7844 62.5982 22.4133 62.5982 21.9867C62.5982 21.56 62.6827 21.1933 62.8516 20.8867C63.0205 20.5756 63.2605 20.3378 63.5716 20.1733C63.8827 20.0044 64.2471 19.92 64.6649 19.92C65.0738 19.92 65.4249 20 65.7182 20.16C66.0116 20.3156 66.2382 20.5422 66.3982 20.84C66.5582 21.1333 66.6382 21.4822 66.6382 21.8867V22.2333H63.5516C63.5916 22.5711 63.7093 22.8311 63.9049 23.0133C64.1049 23.1911 64.3693 23.28 64.6982 23.28C64.9427 23.28 65.1405 23.2356 65.2916 23.1467C65.4471 23.0533 65.556 22.9156 65.6182 22.7333H66.6182C66.5249 23.1556 66.3093 23.4867 65.9716 23.7267C65.6382 23.9622 65.216 24.08 64.7049 24.08ZM63.5782 21.56H65.6849C65.6493 21.2844 65.5427 21.0756 65.3649 20.9333C65.1916 20.7867 64.9582 20.7133 64.6649 20.7133C64.376 20.7133 64.1382 20.7867 63.9516 20.9333C63.7649 21.08 63.6405 21.2889 63.5782 21.56Z" fill="black"/>
<defs>
<linearGradient id="paint0_linear_176_1062" x1="31.7891" y1="4.842" x2="8.42089" y2="20.2108" gradientUnits="userSpaceOnUse">
<stop stop-color="#9E9E9E"/>
<stop offset="1" stop-color="#141414"/>
</linearGradient>
</defs>
</svg>
