<svg width="36" height="36" viewBox="0 0 36 36" fill="none" xmlns="http://www.w3.org/2000/svg">
<path d="M11.9843 21.3448C11.8981 21.7398 12.1989 22.1134 12.6032 22.1134H19.4751C19.8794 22.1134 20.1802 22.487 20.0939 22.882L19.4692 25.7421C19.4057 26.033 19.1482 26.2404 18.8504 26.2404H11.2184C11.0266 26.2404 10.8452 26.1535 10.7249 26.004L8.87501 23.7052C8.5002 23.2394 7.74811 23.5045 7.74811 24.1023V25.5728C7.74811 25.9226 7.46452 26.2062 7.11469 26.2062H4.15887C3.80904 26.2062 3.52545 25.9226 3.52545 25.5728V22.6169C3.52545 22.2671 3.80904 21.9835 4.15887 21.9835H7.11209C7.40985 21.9835 7.66742 21.7761 7.73094 21.4852L9.79811 12.0182C9.82895 11.8769 9.90717 11.7505 10.0198 11.6599L12.2344 9.87741C12.3469 9.78682 12.487 9.73743 12.6315 9.73743H13.7329C14.1372 9.73743 14.438 10.111 14.3517 10.506L11.9843 21.3448ZM27.1018 12.2525C27.4768 12.718 28.2286 12.4529 28.2286 11.8552V10.3708C28.2286 10.021 28.5122 9.73743 28.862 9.73743H31.8178C32.1676 9.73743 32.4512 10.021 32.4512 10.3708V13.3267C32.4512 13.6765 32.1676 13.9601 31.8178 13.9601H28.887C28.5893 13.9601 28.3317 14.1675 28.2682 14.4583L27.4971 17.9884L26.5958 22.1144L26.1932 23.9587C26.1624 24.0999 26.0842 24.2263 25.9716 24.317L23.758 26.0993C23.6454 26.19 23.5052 26.2394 23.3607 26.2394H22.2593C21.8551 26.2394 21.5543 25.8658 21.6405 25.4709L22.3731 22.1144L23.2745 17.9884L24.0079 14.632C24.0942 14.2371 23.7934 13.8634 23.3891 13.8634H16.5163C16.112 13.8634 15.8112 13.4898 15.8975 13.0948L16.5221 10.2357C16.5856 9.94478 16.8432 9.73743 17.1409 9.73743H24.7731C24.9648 9.73743 25.1462 9.82424 25.2664 9.97353L27.1018 12.2525Z" fill="url(#paint0_linear_901_47)"/>
<defs>
<linearGradient id="paint0_linear_901_47" x1="35.7626" y1="5.44712" x2="9.47306" y2="22.7368" gradientUnits="userSpaceOnUse">
<stop stop-color="#9E9E9E"/>
<stop offset="1" stop-color="#141414"/>
</linearGradient>
</defs>
</svg>
