<svg width="51" height="51" viewBox="0 0 51 51" fill="none" xmlns="http://www.w3.org/2000/svg">
<g clip-path="url(#clip0_929_3658)">
<g filter="url(#filter0_dd_929_3658)">
<path d="M42.9922 18.1437C42.9922 18.1437 42.9882 18.1565 42.9862 18.1629L27.8422 40.355C27.6044 40.7181 27.2614 40.9997 26.859 41.1622C26.4566 41.3246 26.0142 41.3601 25.5911 41.2639C25.5307 41.2505 25.4712 41.2346 25.4124 41.2161C25.0253 41.0958 24.6808 40.8673 24.4194 40.5575C24.158 40.2477 23.9907 39.8696 23.9373 39.4678L22.2858 28.4602C22.2693 28.3499 22.2876 28.2372 22.3382 28.1378C22.3888 28.0384 22.4692 27.9573 22.568 27.9058L32.2947 22.8294C32.539 22.6938 32.7207 22.4681 32.8011 22.2004C32.8815 21.9328 32.8541 21.6443 32.7248 21.3966C32.5956 21.1488 32.3746 20.9614 32.1092 20.8742C31.8437 20.787 31.5546 20.807 31.3037 20.9299L21.5732 26.0051C21.4744 26.0568 21.3619 26.0763 21.2515 26.061C21.141 26.0456 21.0381 25.9962 20.9571 25.9196L12.8644 18.2672C12.5472 17.9706 12.3275 17.5845 12.2346 17.1602C12.1417 16.7358 12.1799 16.2933 12.3442 15.8911C12.5084 15.489 12.791 15.1463 13.1544 14.9083C13.5179 14.6704 13.945 14.5486 14.3792 14.5589L41.2418 14.8276L41.2609 14.8336C41.641 14.8452 42.011 14.9577 42.3332 15.1596C42.6554 15.3615 42.9181 15.6454 43.0943 15.9824C43.2705 16.3193 43.3539 16.697 43.336 17.0768C43.3181 17.4567 43.1994 17.8249 42.9922 18.1437Z" fill="url(#paint0_linear_929_3658)"/>
<path d="M41.4469 13.8441C41.9493 13.8844 42.4357 14.0435 42.8641 14.3119C43.3365 14.6079 43.722 15.0244 43.9805 15.5184C44.2389 16.0125 44.361 16.5672 44.3347 17.1242C44.3108 17.6296 44.1641 18.1201 43.9104 18.5561L43.8955 18.6036L43.8118 18.7267L28.6786 40.9014L28.6792 40.9027C28.3297 41.4363 27.825 41.8505 27.2336 42.0893C26.6436 42.3275 25.9951 42.3792 25.3746 42.2392C25.2871 42.2198 25.2005 42.1967 25.1149 42.1698L25.1156 42.1711L25.114 42.1695L25.1128 42.1702L25.1131 42.1693C24.5449 41.9921 24.039 41.6573 23.6552 41.2024C23.2707 40.7468 23.0244 40.1906 22.9458 39.5997L22.9461 39.5987L21.2965 28.6086L21.2968 28.6077C21.2497 28.2918 21.3019 27.969 21.4467 27.6844L21.5051 27.5799C21.6501 27.3427 21.8573 27.1484 22.1051 27.0191L31.8114 21.9526C31.8265 21.9434 31.8384 21.9295 31.8435 21.9125C31.8487 21.8947 31.8465 21.8749 31.8379 21.8585C31.8293 21.8424 31.8148 21.8301 31.7975 21.8243C31.7806 21.8188 31.7618 21.8192 31.7456 21.8265L22.0356 26.8918C21.7525 27.0395 21.4305 27.0955 21.1142 27.0517C20.7976 27.0078 20.5025 26.8658 20.2702 26.6462L12.1815 18.9967C11.7164 18.5617 11.3936 17.9957 11.2574 17.3736C11.1213 16.7514 11.1774 16.1025 11.4183 15.513C11.6592 14.9232 12.0741 14.4206 12.6071 14.0716C13.1363 13.7253 13.7575 13.5466 14.3897 13.559L41.2515 13.8277L41.4004 13.8294L41.4469 13.8441Z" stroke="white" stroke-width="2"/>
</g>
</g>
<defs>
<filter id="filter0_dd_929_3658" x="2.185" y="8.55811" width="51.1534" height="46.7588" filterUnits="userSpaceOnUse" color-interpolation-filters="sRGB">
<feFlood flood-opacity="0" result="BackgroundImageFix"/>
<feColorMatrix in="SourceAlpha" type="matrix" values="0 0 0 0 0 0 0 0 0 0 0 0 0 0 0 0 0 0 127 0" result="hardAlpha"/>
<feOffset dy="2"/>
<feGaussianBlur stdDeviation="2"/>
<feComposite in2="hardAlpha" operator="out"/>
<feColorMatrix type="matrix" values="0 0 0 0 0 0 0 0 0 0 0 0 0 0 0 0 0 0 0.07 0"/>
<feBlend mode="normal" in2="BackgroundImageFix" result="effect1_dropShadow_929_3658"/>
<feColorMatrix in="SourceAlpha" type="matrix" values="0 0 0 0 0 0 0 0 0 0 0 0 0 0 0 0 0 0 127 0" result="hardAlpha"/>
<feOffset dy="4"/>
<feGaussianBlur stdDeviation="4"/>
<feComposite in2="hardAlpha" operator="out"/>
<feColorMatrix type="matrix" values="0 0 0 0 0.265385 0 0 0 0 0.265385 0 0 0 0 0.265385 0 0 0 0.12 0"/>
<feBlend mode="normal" in2="effect1_dropShadow_929_3658" result="effect2_dropShadow_929_3658"/>
<feBlend mode="normal" in="SourceGraphic" in2="effect2_dropShadow_929_3658" result="shape"/>
</filter>
<linearGradient id="paint0_linear_929_3658" x1="14.2275" y1="9.57484" x2="31.6789" y2="48.9117" gradientUnits="userSpaceOnUse">
<stop stop-color="#2B35AB"/>
<stop offset="0.456731" stop-color="#8A38F5"/>
<stop offset="0.899038" stop-color="#13CBD4"/>
</linearGradient>
<clipPath id="clip0_929_3658">
<rect width="40" height="40" fill="white" transform="translate(11.9907 0.311523) rotate(17.4436)"/>
</clipPath>
</defs>
</svg>
