<svg width="57" height="57" viewBox="0 0 57 57" fill="none" xmlns="http://www.w3.org/2000/svg">
<g filter="url(#filter0_d_907_3683)">
<g filter="url(#filter1_dd_907_3683)">
<path d="M17.0074 20.544C17.5419 20.544 17.8096 19.8977 17.4317 19.5197L12.8802 14.9683C12.6459 14.734 12.6459 14.3541 12.8802 14.1198L17.6884 9.3116C17.9227 9.07728 18.3026 9.07728 18.5369 9.3116L23.4316 14.2063C23.8096 14.5843 24.4559 14.3166 24.4559 13.782L24.4559 7.14409C24.4559 6.81272 24.7245 6.54409 25.0559 6.54409L31.8558 6.54409C32.1872 6.54409 32.4558 6.81272 32.4558 7.14409L32.4558 13.782C32.4558 14.3166 33.1021 14.5843 33.4801 14.2063L38.3748 9.3116C38.6091 9.07728 38.989 9.07728 39.2233 9.3116L44.0314 14.1198C44.2658 14.3541 44.2658 14.734 44.0314 14.9683L39.48 19.5197C39.102 19.8977 39.3697 20.544 39.9043 20.544L45.8557 20.544C46.1871 20.544 46.4557 20.8126 46.4557 21.144L46.4557 27.9439C46.4557 28.2753 46.1871 28.5439 45.8557 28.5439L39.2183 28.5439C38.6837 28.5439 38.416 29.1902 38.794 29.5682L43.1443 33.9184C43.3786 34.1527 43.3786 34.5326 43.1443 34.767L38.3361 39.5756C38.1018 39.8099 37.7219 39.8099 37.4875 39.5756L33.4801 35.5681C33.1021 35.1901 32.4558 35.4578 32.4558 35.9924L32.4558 41.9438C32.4558 42.2752 32.1872 42.5438 31.8558 42.5438L25.0559 42.5438C24.7245 42.5438 24.4559 42.2752 24.4559 41.9438L24.4559 35.9924C24.4559 35.4578 23.8096 35.1901 23.4316 35.5681L19.4241 39.5756C19.1898 39.8099 18.8099 39.8099 18.5756 39.5756L13.7674 34.767C13.5331 34.5326 13.5331 34.1527 13.7674 33.9184L18.1177 29.5682C18.4957 29.1902 18.228 28.5439 17.6934 28.5439L11.056 28.5439C10.7246 28.5439 10.456 28.2753 10.456 27.9439L10.456 21.144C10.456 20.8126 10.7246 20.544 11.056 20.544L17.0074 20.544Z" fill="url(#paint0_linear_907_3683)"/>
<path d="M16.9812 8.60455C17.606 7.9798 18.6186 7.97998 19.2434 8.60455L23.4557 12.8168L23.4564 7.14407L23.464 6.98041C23.5405 6.22752 24.1391 5.62898 24.892 5.55239L25.0563 5.5441H31.8553C32.739 5.5441 33.4553 6.26042 33.4553 7.14407L33.456 12.8168L37.6683 8.60455C38.2931 7.97999 39.3057 7.9798 39.9304 8.60455L44.7386 13.4127C45.3633 14.0375 45.3632 15.0501 44.7386 15.6749L40.8696 19.544H45.8552C46.7389 19.544 47.4552 20.2603 47.4552 21.144L47.4559 27.9436C47.4559 28.8272 46.7395 29.5435 45.8559 29.5436H40.1839L43.8513 33.211C44.476 33.8357 44.4764 34.849 43.852 35.4739L39.0431 40.2828C38.4184 40.9074 37.4058 40.9073 36.7809 40.2828L33.456 36.9579V41.9435C33.456 42.8271 32.7396 43.5434 31.856 43.5435H25.0557C24.1721 43.5434 23.4557 42.8271 23.4557 41.9435V36.9579L20.1308 40.2828C19.5059 40.9073 18.4933 40.9074 17.8686 40.2828L13.0597 35.4739C12.4352 34.849 12.4357 33.8357 13.0604 33.211L16.7278 29.5436H11.0558C10.1722 29.5435 9.4558 28.8272 9.4558 27.9436L9.45649 21.144L9.46409 20.9803C9.54058 20.2274 10.1393 19.6289 10.8921 19.5523L11.0565 19.544H16.0421L12.1731 15.6749C11.5485 15.0501 11.5484 14.0375 12.1731 13.4127L16.9812 8.60455Z" stroke="white" stroke-width="2"/>
</g>
</g>
<defs>
<filter id="filter0_d_907_3683" x="3" y="0" width="56" height="56" filterUnits="userSpaceOnUse" color-interpolation-filters="sRGB">
<feFlood flood-opacity="0" result="BackgroundImageFix"/>
<feColorMatrix in="SourceAlpha" type="matrix" values="0 0 0 0 0 0 0 0 0 0 0 0 0 0 0 0 0 0 127 0" result="hardAlpha"/>
<feOffset dy="4"/>
<feGaussianBlur stdDeviation="2"/>
<feComposite in2="hardAlpha" operator="out"/>
<feColorMatrix type="matrix" values="0 0 0 0 0 0 0 0 0 0 0 0 0 0 0 0 0 0 0.12 0"/>
<feBlend mode="normal" in2="BackgroundImageFix" result="effect1_dropShadow_907_3683"/>
<feBlend mode="normal" in="SourceGraphic" in2="effect1_dropShadow_907_3683" result="shape"/>
</filter>
<filter id="filter1_dd_907_3683" x="0.455994" y="0.544189" width="55.9997" height="55.9995" filterUnits="userSpaceOnUse" color-interpolation-filters="sRGB">
<feFlood flood-opacity="0" result="BackgroundImageFix"/>
<feColorMatrix in="SourceAlpha" type="matrix" values="0 0 0 0 0 0 0 0 0 0 0 0 0 0 0 0 0 0 127 0" result="hardAlpha"/>
<feOffset dy="2"/>
<feGaussianBlur stdDeviation="2"/>
<feComposite in2="hardAlpha" operator="out"/>
<feColorMatrix type="matrix" values="0 0 0 0 0 0 0 0 0 0 0 0 0 0 0 0 0 0 0.07 0"/>
<feBlend mode="normal" in2="BackgroundImageFix" result="effect1_dropShadow_907_3683"/>
<feColorMatrix in="SourceAlpha" type="matrix" values="0 0 0 0 0 0 0 0 0 0 0 0 0 0 0 0 0 0 127 0" result="hardAlpha"/>
<feOffset dy="4"/>
<feGaussianBlur stdDeviation="4"/>
<feComposite in2="hardAlpha" operator="out"/>
<feColorMatrix type="matrix" values="0 0 0 0 0.265385 0 0 0 0 0.265385 0 0 0 0 0.265385 0 0 0 0.12 0"/>
<feBlend mode="normal" in2="effect1_dropShadow_907_3683" result="effect2_dropShadow_907_3683"/>
<feBlend mode="normal" in="SourceGraphic" in2="effect2_dropShadow_907_3683" result="shape"/>
</filter>
<linearGradient id="paint0_linear_907_3683" x1="5.61125" y1="26.7628" x2="57.1486" y2="30.0345" gradientUnits="userSpaceOnUse">
<stop stop-color="#2B35AB"/>
<stop offset="0.456731" stop-color="#8A38F5"/>
<stop offset="0.899038" stop-color="#13CBD4"/>
</linearGradient>
</defs>
</svg>
