<svg width="57" height="56" viewBox="0 0 57 56" fill="none" xmlns="http://www.w3.org/2000/svg">
<g filter="url(#filter0_d_907_3699)">
<g filter="url(#filter1_dd_907_3699)">
<path d="M11.361 42.4968L9.24074 40.4497L8.57962 39.8399C8.50837 39.7027 8.48413 39.5476 8.51017 39.3964L8.77638 37.8557L8.82231 37.5889L12.4023 16.854C12.4439 16.6152 12.5162 16.3829 12.6168 16.1629L12.6316 16.1308C12.7401 15.9014 12.8797 15.6855 13.0476 15.4893C13.3832 15.0971 13.8198 14.7971 14.3135 14.6197L25.1819 10.683L30.5114 5.5376C30.7899 5.26905 31.1205 5.05568 31.484 4.91005C31.8478 4.76443 32.2377 4.6897 32.6316 4.6897C33.0255 4.6897 33.4154 4.76443 33.7792 4.91005C34.1431 5.05568 34.4733 5.26905 34.7518 5.5376L47.6215 17.9631C47.9 18.232 48.121 18.553 48.2718 18.9043C48.4226 19.2553 48.5 19.6317 48.5 20.012C48.5 20.2201 48.4747 20.4356 48.4291 20.6378L48.419 20.6808C48.3821 20.8302 48.3329 20.9772 48.2718 21.1201C48.121 21.471 47.9 21.7902 47.6215 22.0591L42.2959 27.1989L38.2168 37.7048C38.1542 37.8658 38.0772 38.0205 37.9868 38.1672C37.9597 38.2108 37.9311 38.2548 37.9018 38.2971C37.8631 38.353 37.8222 38.4074 37.7792 38.4609C37.7227 38.5311 37.6631 38.5992 37.6009 38.6634C37.5459 38.7203 37.4884 38.7752 37.4287 38.8276C37.3914 38.8604 37.3535 38.8922 37.3144 38.9232C37.2276 38.992 37.1372 39.0559 37.0435 39.1146L36.9954 39.1443C36.922 39.1886 36.8464 39.2299 36.769 39.2679C36.6771 39.3133 36.5827 39.3538 36.4865 39.3894L36.4702 39.3954C36.3827 39.4272 36.2937 39.4551 36.2033 39.4792C36.1385 39.4963 36.0731 39.5113 36.0069 39.5243L35.9548 39.534L35.9024 39.5431L15.9074 42.7608L14.1496 43.0437L12.5521 43.3007L12.5217 43.3049C12.4652 43.3115 12.4085 43.3122 12.3524 43.3066C12.334 43.3049 12.3155 43.3024 12.2971 43.2993C12.2265 43.2871 12.1578 43.2651 12.0931 43.2336C11.9509 43.1649 11.8355 43.0545 11.7628 42.9183L11.361 42.4968Z" fill="white"/>
<g style="mix-blend-mode:hard-light">
<path d="M42.8381 19.4406L32.9032 9.50572C32.6883 9.29074 32.4331 9.12021 32.1523 9.00387C31.8715 8.88752 31.5705 8.82764 31.2665 8.82764C30.9625 8.82764 30.6615 8.88752 30.3806 9.00387C30.0998 9.12021 29.8446 9.29074 29.6297 9.50572L25.5157 13.6197L17.1258 16.7674C16.7445 16.9092 16.4074 17.1491 16.1484 17.4627C15.8893 17.7763 15.7175 18.1527 15.6503 18.5539L12.6458 36.5778C12.6257 36.6987 12.6444 36.8228 12.6993 36.9323C12.7543 37.0418 12.8425 37.1311 12.9514 37.1872C13.0603 37.2434 13.1842 37.2635 13.3053 37.2447C13.4264 37.2259 13.5384 37.1692 13.6251 37.0827L21.8704 28.8374C21.6092 28.2938 21.495 27.6913 21.5392 27.0899C21.593 26.35 21.8823 25.6468 22.3649 25.0834C22.8474 24.5199 23.4978 24.1259 24.2206 23.959C24.9434 23.792 25.7007 23.861 26.3814 24.1558C27.0621 24.4506 27.6306 24.9558 28.0033 25.5971C28.3761 26.2385 28.5336 26.9824 28.4528 27.7199C28.372 28.4573 28.0571 29.1494 27.5542 29.6948C27.0514 30.2403 26.3871 30.6103 25.6587 30.7506C24.9302 30.891 24.176 30.7944 23.5065 30.4748L15.2612 38.7202C15.1747 38.8069 15.1179 38.9189 15.0991 39.04C15.0803 39.161 15.1004 39.2849 15.1566 39.3938C15.2127 39.5027 15.302 39.591 15.4115 39.6459C15.521 39.7009 15.6452 39.7196 15.766 39.6995L33.7914 36.695C34.1919 36.6283 34.5679 36.4573 34.8814 36.1994C35.195 35.9414 35.4352 35.6055 35.5779 35.2253L38.727 26.8252L42.8381 22.7156C43.0531 22.5006 43.2236 22.2455 43.34 21.9646C43.4563 21.6838 43.5162 21.3828 43.5162 21.0788C43.5162 20.7748 43.4563 20.4738 43.34 20.193C43.2236 19.9121 43.0531 19.657 42.8381 19.442V19.4406ZM37.7304 24.5498L27.7955 14.6149L31.2672 11.1432L41.2021 21.0781L37.7304 24.5498Z" fill="url(#paint0_linear_907_3699)"/>
</g>
</g>
</g>
<defs>
<filter id="filter0_d_907_3699" x="0" y="0" width="56" height="56" filterUnits="userSpaceOnUse" color-interpolation-filters="sRGB">
<feFlood flood-opacity="0" result="BackgroundImageFix"/>
<feColorMatrix in="SourceAlpha" type="matrix" values="0 0 0 0 0 0 0 0 0 0 0 0 0 0 0 0 0 0 127 0" result="hardAlpha"/>
<feOffset dy="4"/>
<feGaussianBlur stdDeviation="2"/>
<feComposite in2="hardAlpha" operator="out"/>
<feColorMatrix type="matrix" values="0 0 0 0 0 0 0 0 0 0 0 0 0 0 0 0 0 0 0.12 0"/>
<feBlend mode="normal" in2="BackgroundImageFix" result="effect1_dropShadow_907_3699"/>
<feBlend mode="normal" in="SourceGraphic" in2="effect1_dropShadow_907_3699" result="shape"/>
</filter>
<filter id="filter1_dd_907_3699" x="0.5" y="0.689697" width="56" height="54.6206" filterUnits="userSpaceOnUse" color-interpolation-filters="sRGB">
<feFlood flood-opacity="0" result="BackgroundImageFix"/>
<feColorMatrix in="SourceAlpha" type="matrix" values="0 0 0 0 0 0 0 0 0 0 0 0 0 0 0 0 0 0 127 0" result="hardAlpha"/>
<feOffset dy="2"/>
<feGaussianBlur stdDeviation="2"/>
<feComposite in2="hardAlpha" operator="out"/>
<feColorMatrix type="matrix" values="0 0 0 0 0 0 0 0 0 0 0 0 0 0 0 0 0 0 0.07 0"/>
<feBlend mode="normal" in2="BackgroundImageFix" result="effect1_dropShadow_907_3699"/>
<feColorMatrix in="SourceAlpha" type="matrix" values="0 0 0 0 0 0 0 0 0 0 0 0 0 0 0 0 0 0 127 0" result="hardAlpha"/>
<feOffset dy="4"/>
<feGaussianBlur stdDeviation="4"/>
<feComposite in2="hardAlpha" operator="out"/>
<feColorMatrix type="matrix" values="0 0 0 0 0.265385 0 0 0 0 0.265385 0 0 0 0 0.265385 0 0 0 0.12 0"/>
<feBlend mode="normal" in2="effect1_dropShadow_907_3699" result="effect2_dropShadow_907_3699"/>
<feBlend mode="normal" in="SourceGraphic" in2="effect2_dropShadow_907_3699" result="shape"/>
</filter>
<linearGradient id="paint0_linear_907_3699" x1="13.3734" y1="16.4959" x2="45.4941" y2="43.0114" gradientUnits="userSpaceOnUse">
<stop stop-color="#2B35AB"/>
<stop offset="0.475962" stop-color="#522192"/>
<stop offset="0.899038" stop-color="#13CBD4"/>
</linearGradient>
</defs>
</svg>
