<svg width="58" height="61" viewBox="0 0 58 61" fill="none" xmlns="http://www.w3.org/2000/svg">
<g filter="url(#filter0_d_907_3719)">
<g filter="url(#filter1_dd_907_3719)">
<mask id="path-1-outside-1_907_3719" maskUnits="userSpaceOnUse" x="8.07568" y="4.24988" width="42" height="44" fill="black">
<rect fill="white" x="8.07568" y="4.24988" width="42" height="44"/>
<path d="M45.9453 33.2204C47.252 33.9206 47.2519 35.7943 45.9451 36.4944L29.8774 45.1017C29.3296 45.3952 28.6713 45.3952 28.1235 45.1017L12.0559 36.4944C10.7491 35.7943 10.7489 33.9206 12.0556 33.2204L12.1234 33.1841C12.6713 32.8905 13.3297 32.8904 13.8776 33.1839L28.1235 40.8156C28.6713 41.109 29.3296 41.109 29.8775 40.8156L44.1234 33.1839C44.6713 32.8904 45.3297 32.8905 45.8775 33.1841L45.9453 33.2204ZM45.9449 24.6486C47.2518 25.3487 47.2519 27.2224 45.9452 27.9226L45.0005 28.4289L40.9995 30.5715L29.8775 36.5303C29.3297 36.8238 28.6713 36.8238 28.1235 36.5303L17.0005 30.5715L13.0005 28.4289L12.0558 27.9226C10.749 27.2224 10.7492 25.3487 12.0561 24.6486L12.1236 24.6125C12.6714 24.3191 13.3296 24.3191 13.8774 24.6125L17.0005 26.2853L21.0005 28.4289L28.1235 32.2443C28.6713 32.5378 29.3296 32.5377 29.8774 32.2443L36.9995 28.4289L40.9995 26.2853L44.1237 24.6123C44.6714 24.319 45.3296 24.319 45.8773 24.6124L45.9449 24.6486ZM45.9451 16.0773C47.2519 16.7774 47.252 18.651 45.9453 19.3513L45.0005 19.8576L40.9995 22.0002L37.0005 24.1428L33.0005 26.2853L29.8777 27.9588C29.3297 28.2525 28.6712 28.2525 28.1233 27.9588L25.0005 26.2853L13.0005 19.8576L12.0556 19.3513C10.7489 18.651 10.7491 16.7774 12.0559 16.0773L28.1235 7.46997C28.6713 7.17651 29.3296 7.17651 29.8774 7.46997L45.9451 16.0773Z"/>
</mask>
<path d="M45.9453 33.2204C47.252 33.9206 47.2519 35.7943 45.9451 36.4944L29.8774 45.1017C29.3296 45.3952 28.6713 45.3952 28.1235 45.1017L12.0559 36.4944C10.7491 35.7943 10.7489 33.9206 12.0556 33.2204L12.1234 33.1841C12.6713 32.8905 13.3297 32.8904 13.8776 33.1839L28.1235 40.8156C28.6713 41.109 29.3296 41.109 29.8775 40.8156L44.1234 33.1839C44.6713 32.8904 45.3297 32.8905 45.8775 33.1841L45.9453 33.2204ZM45.9449 24.6486C47.2518 25.3487 47.2519 27.2224 45.9452 27.9226L45.0005 28.4289L40.9995 30.5715L29.8775 36.5303C29.3297 36.8238 28.6713 36.8238 28.1235 36.5303L17.0005 30.5715L13.0005 28.4289L12.0558 27.9226C10.749 27.2224 10.7492 25.3487 12.0561 24.6486L12.1236 24.6125C12.6714 24.3191 13.3296 24.3191 13.8774 24.6125L17.0005 26.2853L21.0005 28.4289L28.1235 32.2443C28.6713 32.5378 29.3296 32.5377 29.8774 32.2443L36.9995 28.4289L40.9995 26.2853L44.1237 24.6123C44.6714 24.319 45.3296 24.319 45.8773 24.6124L45.9449 24.6486ZM45.9451 16.0773C47.2519 16.7774 47.252 18.651 45.9453 19.3513L45.0005 19.8576L40.9995 22.0002L37.0005 24.1428L33.0005 26.2853L29.8777 27.9588C29.3297 28.2525 28.6712 28.2525 28.1233 27.9588L25.0005 26.2853L13.0005 19.8576L12.0556 19.3513C10.7489 18.651 10.7491 16.7774 12.0559 16.0773L28.1235 7.46997C28.6713 7.17651 29.3296 7.17651 29.8774 7.46997L45.9451 16.0773Z" fill="#626262"/>
<path d="M45.0005 28.4289L46.3493 30.9476L46.35 30.9472L45.0005 28.4289ZM40.9995 30.5715L39.6507 28.0528L39.6502 28.053L40.9995 30.5715ZM17.0005 30.5715L18.3497 28.053L18.3496 28.0529L17.0005 30.5715ZM13.0005 28.4289L11.6509 30.9472L11.6514 30.9475L13.0005 28.4289ZM17.0005 26.2853L18.35 23.767L18.3496 23.7668L17.0005 26.2853ZM21.0005 28.4289L19.6509 30.9472L19.6514 30.9475L21.0005 28.4289ZM36.9995 28.4289L38.3487 30.9474L38.3491 30.9472L36.9995 28.4289ZM40.9995 26.2853L39.6507 23.7666L39.65 23.767L40.9995 26.2853ZM45.0005 19.8576L46.3493 22.3763L46.35 22.3759L45.0005 19.8576ZM40.9995 22.0002L39.6507 19.4815L39.6502 19.4817L40.9995 22.0002ZM37.0005 24.1428L38.3496 26.6614L38.3498 26.6612L37.0005 24.1428ZM33.0005 26.2853L31.6514 23.7668L31.6509 23.767L33.0005 26.2853ZM25.0005 26.2853L26.35 23.767L26.3496 23.7668L25.0005 26.2853ZM13.0005 19.8576L11.6509 22.3759L11.6514 22.3762L13.0005 19.8576ZM45.9453 19.3513L44.5958 16.8329L45.9453 19.3513ZM45.9451 16.0773L44.5959 18.5958L45.9451 16.0773ZM44.1237 24.6123L42.7748 22.0936L44.1237 24.6123ZM29.8775 36.5303L28.5282 34.0119L29.8775 36.5303ZM28.1235 7.46997L29.4727 9.98851L28.1235 7.46997ZM29.8774 7.46997L28.5283 9.98851L29.8774 7.46997ZM45.9452 27.9226L44.5957 25.4043L45.9452 27.9226ZM45.9449 24.6486L47.294 22.1301L45.9449 24.6486ZM29.8774 32.2443L28.5282 29.7258L29.8774 32.2443ZM44.1234 33.1839L42.7742 30.6654L44.1234 33.1839ZM45.8775 33.1841L44.528 35.7024L45.8775 33.1841ZM28.1235 40.8156L26.7743 43.3341L28.1235 40.8156ZM29.8775 40.8156L28.5283 38.297L29.8775 40.8156ZM12.1234 33.1841L10.7739 30.6657L12.1234 33.1841ZM13.8776 33.1839L12.5284 35.7025L13.8776 33.1839ZM12.1236 24.6125L10.7745 22.0939L12.1236 24.6125ZM13.8774 24.6125L15.2264 22.0939L13.8774 24.6125ZM29.8777 27.9588L28.5281 25.4405L29.8777 27.9588ZM28.1233 27.9588L29.4728 25.4405L28.1233 27.9588ZM12.0559 36.4944L10.7067 39.0129L12.0559 36.4944ZM12.0556 33.2204L10.7061 30.7021L12.0556 33.2204ZM12.0558 27.9226L10.7062 30.441L12.0558 27.9226ZM12.0561 24.6486L13.4051 27.1672L12.0561 24.6486ZM29.8774 45.1017L28.5283 42.5832L29.8774 45.1017ZM28.1235 45.1017L29.4727 42.5832L28.1235 45.1017ZM45.9451 36.4944L44.5959 33.9758L45.9451 36.4944ZM45.9451 36.4944L44.5959 33.9758L28.5283 42.5832L29.8774 45.1017L31.2266 47.6202L47.2943 39.0129L45.9451 36.4944ZM28.1235 45.1017L29.4727 42.5832L13.405 33.9758L12.0559 36.4944L10.7067 39.0129L26.7744 47.6202L28.1235 45.1017ZM12.0556 33.2204L13.4052 35.7387L13.473 35.7024L12.1234 33.1841L10.7739 30.6657L10.7061 30.7021L12.0556 33.2204ZM13.8776 33.1839L12.5284 35.7025L26.7743 43.3341L28.1235 40.8156L29.4727 38.297L15.2268 30.6654L13.8776 33.1839ZM29.8775 40.8156L31.2266 43.3341L45.4726 35.7025L44.1234 33.1839L42.7742 30.6654L28.5283 38.297L29.8775 40.8156ZM45.8775 33.1841L44.528 35.7024L44.5958 35.7387L45.9453 33.2204L47.2949 30.7021L47.2271 30.6657L45.8775 33.1841ZM45.9452 27.9226L44.5957 25.4043L43.6509 25.9106L45.0005 28.4289L46.35 30.9472L47.2948 30.441L45.9452 27.9226ZM45.0005 28.4289L43.6517 25.9102L39.6507 28.0528L40.9995 30.5715L42.3483 33.0902L46.3493 30.9476L45.0005 28.4289ZM40.9995 30.5715L39.6502 28.053L28.5282 34.0119L29.8775 36.5303L31.2268 39.0488L42.3488 33.0899L40.9995 30.5715ZM28.1235 36.5303L29.4727 34.0118L18.3497 28.053L17.0005 30.5715L15.6513 33.09L26.7742 39.0488L28.1235 36.5303ZM17.0005 30.5715L18.3496 28.0529L14.3496 25.9103L13.0005 28.4289L11.6514 30.9475L15.6514 33.0901L17.0005 30.5715ZM13.0005 28.4289L14.35 25.9106L13.4053 25.4043L12.0558 27.9226L10.7062 30.441L11.6509 30.9472L13.0005 28.4289ZM12.0561 24.6486L13.4051 27.1672L13.4727 27.1311L12.1236 24.6125L10.7745 22.0939L10.707 22.1301L12.0561 24.6486ZM13.8774 24.6125L12.5283 27.1311L15.6514 28.8039L17.0005 26.2853L18.3496 23.7668L15.2264 22.0939L13.8774 24.6125ZM17.0005 26.2853L15.6509 28.8037L19.6509 30.9472L21.0005 28.4289L22.35 25.9106L18.35 23.767L17.0005 26.2853ZM21.0005 28.4289L19.6514 30.9475L26.7745 34.7629L28.1235 32.2443L29.4726 29.7257L22.3496 25.9103L21.0005 28.4289ZM29.8774 32.2443L31.2266 34.7628L38.3487 30.9474L36.9995 28.4289L35.6503 25.9104L28.5282 29.7258L29.8774 32.2443ZM36.9995 28.4289L38.3491 30.9472L42.3491 28.8037L40.9995 26.2853L39.65 23.767L35.65 25.9106L36.9995 28.4289ZM40.9995 26.2853L42.3483 28.8041L45.4725 27.1311L44.1237 24.6123L42.7748 22.0936L39.6507 23.7666L40.9995 26.2853ZM45.8773 24.6124L44.5282 27.131L44.5958 27.1672L45.9449 24.6486L47.294 22.1301L47.2263 22.0938L45.8773 24.6124ZM45.9453 19.3513L44.5958 16.8329L43.6509 17.3393L45.0005 19.8576L46.35 22.3759L47.2949 21.8696L45.9453 19.3513ZM45.0005 19.8576L43.6517 17.3389L39.6507 19.4815L40.9995 22.0002L42.3483 24.5189L46.3493 22.3763L45.0005 19.8576ZM40.9995 22.0002L39.6502 19.4817L35.6512 21.6243L37.0005 24.1428L38.3498 26.6612L42.3488 24.5186L40.9995 22.0002ZM37.0005 24.1428L35.6514 21.6242L31.6514 23.7668L33.0005 26.2853L34.3496 28.8039L38.3496 26.6614L37.0005 24.1428ZM33.0005 26.2853L31.6509 23.767L28.5281 25.4405L29.8777 27.9588L31.2272 30.4772L34.35 28.8037L33.0005 26.2853ZM28.1233 27.9588L29.4728 25.4405L26.35 23.767L25.0005 26.2853L23.6509 28.8037L26.7737 30.4772L28.1233 27.9588ZM25.0005 26.2853L26.3496 23.7668L14.3496 17.339L13.0005 19.8576L11.6514 22.3762L23.6514 28.8039L25.0005 26.2853ZM13.0005 19.8576L14.35 17.3393L13.4052 16.8329L12.0556 19.3513L10.7061 21.8696L11.6509 22.3759L13.0005 19.8576ZM12.0559 16.0773L13.405 18.5958L29.4727 9.98851L28.1235 7.46997L26.7744 4.95144L10.7067 13.5588L12.0559 16.0773ZM29.8774 7.46997L28.5283 9.98851L44.5959 18.5958L45.9451 16.0773L47.2943 13.5588L31.2266 4.95144L29.8774 7.46997ZM45.9453 19.3513L47.2949 21.8696C50.6119 20.0921 50.6115 15.3358 47.2943 13.5588L45.9451 16.0773L44.5959 18.5958C43.8923 18.2189 43.8922 17.21 44.5958 16.8329L45.9453 19.3513ZM44.1237 24.6123L45.4725 27.1311C45.1775 27.289 44.8231 27.289 44.5282 27.131L45.8773 24.6124L47.2263 22.0938C45.836 21.3491 44.1653 21.349 42.7748 22.0936L44.1237 24.6123ZM29.8775 36.5303L28.5282 34.0119C28.8232 33.8538 29.1777 33.8538 29.4727 34.0118L28.1235 36.5303L26.7742 39.0488C28.1649 39.7939 29.8361 39.7939 31.2268 39.0488L29.8775 36.5303ZM28.1235 7.46997L29.4727 9.98851C29.1777 10.1465 28.8233 10.1465 28.5283 9.98851L29.8774 7.46997L31.2266 4.95144C29.836 4.2065 28.165 4.2065 26.7744 4.95144L28.1235 7.46997ZM45.9452 27.9226L47.2948 30.441C50.6118 28.6634 50.6114 23.907 47.294 22.1301L45.9449 24.6486L44.5958 27.1672C43.8921 26.7903 43.892 25.7814 44.5957 25.4043L45.9452 27.9226ZM28.1235 32.2443L26.7745 34.7629C28.1651 35.5078 29.8361 35.5077 31.2266 34.7628L29.8774 32.2443L28.5282 29.7258C28.8232 29.5677 29.1776 29.5677 29.4726 29.7257L28.1235 32.2443ZM12.0556 19.3513L13.4052 16.8329C14.1088 17.21 14.1087 18.2189 13.405 18.5958L12.0559 16.0773L10.7067 13.5588C7.38944 15.3358 7.38908 20.0921 10.7061 21.8696L12.0556 19.3513ZM44.1234 33.1839L45.4726 35.7025C45.1775 35.8605 44.823 35.8605 44.528 35.7024L45.8775 33.1841L47.2271 30.6657C45.8364 29.9205 44.165 29.9203 42.7742 30.6654L44.1234 33.1839ZM28.1235 40.8156L26.7743 43.3341C28.1649 44.079 29.836 44.079 31.2266 43.3341L29.8775 40.8156L28.5283 38.297C28.8232 38.139 29.1777 38.139 29.4727 38.297L28.1235 40.8156ZM12.1234 33.1841L13.473 35.7024C13.178 35.8605 12.8234 35.8605 12.5284 35.7025L13.8776 33.1839L15.2268 30.6654C13.836 29.9203 12.1646 29.9205 10.7739 30.6657L12.1234 33.1841ZM12.1236 24.6125L13.4727 27.1311C13.1777 27.2891 12.8233 27.2891 12.5283 27.1311L13.8774 24.6125L15.2264 22.0939C13.8359 21.3491 12.165 21.3491 10.7745 22.0939L12.1236 24.6125ZM29.8777 27.9588L28.5281 25.4405C28.8232 25.2824 29.1778 25.2824 29.4728 25.4405L28.1233 27.9588L26.7737 30.4772C28.1647 31.2225 29.8363 31.2225 31.2272 30.4772L29.8777 27.9588ZM12.0559 36.4944L13.405 33.9758C14.1087 34.3528 14.1088 35.3617 13.4052 35.7387L12.0556 33.2204L10.7061 30.7021C7.38907 32.4796 7.38944 37.2359 10.7067 39.0129L12.0559 36.4944ZM12.0558 27.9226L13.4053 25.4043C14.1089 25.7814 14.1088 26.7903 13.4051 27.1672L12.0561 24.6486L10.707 22.1301C7.3896 23.907 7.38914 28.6634 10.7062 30.441L12.0558 27.9226ZM29.8774 45.1017L28.5283 42.5832C28.8233 42.4251 29.1777 42.4251 29.4727 42.5832L28.1235 45.1017L26.7744 47.6202C28.165 48.3652 29.836 48.3652 31.2266 47.6202L29.8774 45.1017ZM45.9451 36.4944L47.2943 39.0129C50.6115 37.2359 50.6119 32.4796 47.2949 30.7021L45.9453 33.2204L44.5958 35.7387C43.8922 35.3617 43.8923 34.3528 44.5959 33.9758L45.9451 36.4944Z" fill="white" mask="url(#path-1-outside-1_907_3719)"/>
<path d="M28.123 40.816C28.6708 41.1094 29.3292 41.1094 29.877 40.816L44.123 33.1842C44.6708 32.8907 45.3291 32.8907 45.8769 33.1842L45.9442 33.2202C47.2511 33.9203 47.2511 35.7941 45.9442 36.4943L29.877 45.1017C29.3292 45.3952 28.6708 45.3952 28.123 45.1017L12.0558 36.4943C10.7489 35.7941 10.7489 33.9203 12.0558 33.2202L12.1231 33.1842C12.6709 32.8907 13.3292 32.8907 13.877 33.1842L28.123 40.816Z" fill="url(#paint0_linear_907_3719)"/>
<path fill-rule="evenodd" clip-rule="evenodd" d="M13.877 24.6127C13.3292 24.3193 12.6709 24.3193 12.1231 24.6127L12.0559 24.6488C10.749 25.3489 10.749 27.2227 12.0559 27.9228L13.0001 28.4287L17.0001 30.5715L28.123 36.5303C28.6708 36.8237 29.3292 36.8237 29.877 36.5303L40.9999 30.5715L44.9999 28.4287L45.9441 27.9228C47.251 27.2227 47.251 25.3489 45.9441 24.6488L45.8769 24.6127C45.3291 24.3193 44.6708 24.3193 44.123 24.6127L40.9999 26.2858L36.9998 28.4287L29.877 32.2445C29.3292 32.538 28.6708 32.538 28.123 32.2445L21.0002 28.4287L17.0001 26.2858L13.877 24.6127Z" fill="url(#paint1_linear_907_3719)"/>
<path d="M45.9442 19.3513C47.2511 18.6512 47.2511 16.7774 45.9442 16.0772L29.877 7.46981C29.3292 7.17633 28.6708 7.17633 28.123 7.46981L12.0558 16.0772C10.7489 16.7774 10.7489 18.6512 12.0558 19.3513L13.0001 19.8571L17.0001 22L21.0002 24.1429L25.0003 26.2857L28.123 27.9587C28.6708 28.2522 29.3292 28.2522 29.877 27.9588L33.0001 26.2857L37.0001 24.1429L40.9999 22L44.9999 19.8571L45.9442 19.3513Z" fill="url(#paint2_linear_907_3719)"/>
</g>
</g>
<defs>
<filter id="filter0_d_907_3719" x="1" y="2" width="56" height="56" filterUnits="userSpaceOnUse" color-interpolation-filters="sRGB">
<feFlood flood-opacity="0" result="BackgroundImageFix"/>
<feColorMatrix in="SourceAlpha" type="matrix" values="0 0 0 0 0 0 0 0 0 0 0 0 0 0 0 0 0 0 127 0" result="hardAlpha"/>
<feOffset dy="4"/>
<feGaussianBlur stdDeviation="2"/>
<feComposite in2="hardAlpha" operator="out"/>
<feColorMatrix type="matrix" values="0 0 0 0 0 0 0 0 0 0 0 0 0 0 0 0 0 0 0.12 0"/>
<feBlend mode="normal" in2="BackgroundImageFix" result="effect1_dropShadow_907_3719"/>
<feBlend mode="normal" in="SourceGraphic" in2="effect1_dropShadow_907_3719" result="shape"/>
</filter>
<filter id="filter1_dd_907_3719" x="0.218536" y="0.3927" width="57.5639" height="59.7863" filterUnits="userSpaceOnUse" color-interpolation-filters="sRGB">
<feFlood flood-opacity="0" result="BackgroundImageFix"/>
<feColorMatrix in="SourceAlpha" type="matrix" values="0 0 0 0 0 0 0 0 0 0 0 0 0 0 0 0 0 0 127 0" result="hardAlpha"/>
<feOffset dy="2"/>
<feGaussianBlur stdDeviation="2"/>
<feComposite in2="hardAlpha" operator="out"/>
<feColorMatrix type="matrix" values="0 0 0 0 0 0 0 0 0 0 0 0 0 0 0 0 0 0 0.07 0"/>
<feBlend mode="normal" in2="BackgroundImageFix" result="effect1_dropShadow_907_3719"/>
<feColorMatrix in="SourceAlpha" type="matrix" values="0 0 0 0 0 0 0 0 0 0 0 0 0 0 0 0 0 0 127 0" result="hardAlpha"/>
<feOffset dy="4"/>
<feGaussianBlur stdDeviation="4"/>
<feComposite in2="hardAlpha" operator="out"/>
<feColorMatrix type="matrix" values="0 0 0 0 0.265385 0 0 0 0 0.265385 0 0 0 0 0.265385 0 0 0 0.12 0"/>
<feBlend mode="normal" in2="effect1_dropShadow_907_3719" result="effect2_dropShadow_907_3719"/>
<feBlend mode="normal" in="SourceGraphic" in2="effect2_dropShadow_907_3719" result="shape"/>
</filter>
<linearGradient id="paint0_linear_907_3719" x1="8.88095" y1="34.0715" x2="15.3211" y2="56.8237" gradientUnits="userSpaceOnUse">
<stop stop-color="#2B35AB"/>
<stop offset="0.456731" stop-color="#8A38F5"/>
<stop offset="0.899038" stop-color="#13CBD4"/>
</linearGradient>
<linearGradient id="paint1_linear_907_3719" x1="8.88095" y1="25.5001" x2="15.3211" y2="48.2523" gradientUnits="userSpaceOnUse">
<stop stop-color="#2B35AB"/>
<stop offset="0.456731" stop-color="#8A38F5"/>
<stop offset="0.899038" stop-color="#13CBD4"/>
</linearGradient>
<linearGradient id="paint2_linear_907_3719" x1="8.88095" y1="9.26191" x2="24.686" y2="42.7643" gradientUnits="userSpaceOnUse">
<stop stop-color="#2B35AB"/>
<stop offset="0.456731" stop-color="#8A38F5"/>
<stop offset="0.899038" stop-color="#13CBD4"/>
</linearGradient>
</defs>
</svg>
