<svg width="54" height="56" viewBox="0 0 54 56" fill="none" xmlns="http://www.w3.org/2000/svg">
<g clip-path="url(#clip0_907_3710)" filter="url(#filter0_d_907_3710)">
<g filter="url(#filter1_dd_907_3710)">
<path d="M21.295 0.589844C23.1117 0.589918 24.5841 2.06315 24.5841 3.87988V4.81934C24.5841 5.07887 24.7952 5.29004 25.0548 5.29004H45.0645C46.8813 5.29004 48.3546 6.76234 48.3546 8.5791V25.6592C48.3895 25.7832 48.4102 25.9136 48.4102 26.0488V44.7646C48.4101 46.5813 46.9369 48.0537 45.1202 48.0537H32.7052C30.8886 48.0536 29.4163 46.5812 29.4161 44.7646V44.2939C29.4159 44.0346 29.2048 43.8242 28.9454 43.8242H7.21884C6.3196 43.8242 5.59004 43.0955 5.58994 42.1963V3.87988C5.58994 2.06311 7.0632 0.589844 8.87997 0.589844H21.295Z" fill="white" stroke="white" stroke-width="2.81963"/>
<path d="M43.2754 25.9324C44.7506 25.9324 45.9472 27.1281 45.9472 28.6033V42.7976C45.9472 44.2729 44.7506 45.4695 43.2754 45.4695H33.2949C31.8196 45.4695 30.624 44.2729 30.624 42.7976V28.6033C30.6241 27.1281 31.8197 25.9324 33.2949 25.9324H43.2754ZM24.9189 25.9324C26.394 25.9326 27.5897 27.1282 27.5898 28.6033V38.5837C27.5898 40.0589 26.394 41.2554 24.9189 41.2556H10.7236C9.24842 41.2555 8.0527 40.0589 8.0527 38.5837V28.6033C8.05277 27.1281 9.24846 25.9325 10.7236 25.9324H24.9189ZM43.125 7.72632C44.6 7.72652 45.7957 8.92218 45.7959 10.3972V20.3787C45.7956 21.8536 44.5999 23.0494 43.125 23.0496H28.9297C27.4547 23.0494 26.259 21.8536 26.2588 20.3787V10.3972C26.2589 8.92214 27.4546 7.72646 28.9297 7.72632H43.125ZM20.705 3.17456C22.1801 3.17474 23.3758 4.37044 23.3759 5.84546V20.0408C23.3758 21.5158 22.1801 22.7115 20.705 22.7117H10.7236C9.24859 22.7115 8.0529 21.5158 8.0527 20.0408V5.84546C8.05288 4.37044 9.24858 3.17474 10.7236 3.17456H20.705Z" fill="url(#paint0_linear_907_3710)"/>
</g>
</g>
<defs>
<filter id="filter0_d_907_3710" x="-1" y="0" width="56" height="56" filterUnits="userSpaceOnUse" color-interpolation-filters="sRGB">
<feFlood flood-opacity="0" result="BackgroundImageFix"/>
<feColorMatrix in="SourceAlpha" type="matrix" values="0 0 0 0 0 0 0 0 0 0 0 0 0 0 0 0 0 0 127 0" result="hardAlpha"/>
<feOffset dy="4"/>
<feGaussianBlur stdDeviation="2"/>
<feComposite in2="hardAlpha" operator="out"/>
<feColorMatrix type="matrix" values="0 0 0 0 0 0 0 0 0 0 0 0 0 0 0 0 0 0 0.12 0"/>
<feBlend mode="normal" in2="BackgroundImageFix" result="effect1_dropShadow_907_3710"/>
<feBlend mode="normal" in="SourceGraphic" in2="effect1_dropShadow_907_3710" result="shape"/>
</filter>
<filter id="filter1_dd_907_3710" x="-3.81952" y="-4.81958" width="61.6392" height="66.2832" filterUnits="userSpaceOnUse" color-interpolation-filters="sRGB">
<feFlood flood-opacity="0" result="BackgroundImageFix"/>
<feColorMatrix in="SourceAlpha" type="matrix" values="0 0 0 0 0 0 0 0 0 0 0 0 0 0 0 0 0 0 127 0" result="hardAlpha"/>
<feOffset dy="2"/>
<feGaussianBlur stdDeviation="2"/>
<feComposite in2="hardAlpha" operator="out"/>
<feColorMatrix type="matrix" values="0 0 0 0 0 0 0 0 0 0 0 0 0 0 0 0 0 0 0.07 0"/>
<feBlend mode="normal" in2="BackgroundImageFix" result="effect1_dropShadow_907_3710"/>
<feColorMatrix in="SourceAlpha" type="matrix" values="0 0 0 0 0 0 0 0 0 0 0 0 0 0 0 0 0 0 127 0" result="hardAlpha"/>
<feOffset dy="4"/>
<feGaussianBlur stdDeviation="4"/>
<feComposite in2="hardAlpha" operator="out"/>
<feColorMatrix type="matrix" values="0 0 0 0 0.265385 0 0 0 0 0.265385 0 0 0 0 0.265385 0 0 0 0.12 0"/>
<feBlend mode="normal" in2="effect1_dropShadow_907_3710" result="effect2_dropShadow_907_3710"/>
<feBlend mode="normal" in="SourceGraphic" in2="effect2_dropShadow_907_3710" result="shape"/>
</filter>
<linearGradient id="paint0_linear_907_3710" x1="7.93992" y1="7.63903" x2="48.3551" y2="48.7584" gradientUnits="userSpaceOnUse">
<stop stop-color="#2B35AB"/>
<stop offset="0.456731" stop-color="#8A38F5"/>
<stop offset="0.899038" stop-color="#13CBD4"/>
</linearGradient>
<clipPath id="clip0_907_3710">
<rect width="48" height="48" fill="white" transform="translate(3)"/>
</clipPath>
</defs>
</svg>
