<svg width="52" height="56" viewBox="0 0 52 56" fill="none" xmlns="http://www.w3.org/2000/svg">
<g filter="url(#filter0_d_907_3687)">
<g filter="url(#filter1_dd_907_3687)">
<path d="M8.81033 16.245C8.37116 14.7543 9.22356 13.1899 10.7142 12.7507L37.705 4.7988C39.1957 4.35963 40.7601 5.21203 41.1993 6.70269L42.7897 12.1009L10.4007 21.6431L8.81033 16.245Z" fill="white"/>
<path d="M11.1829 15.952C11.0434 15.4784 11.3142 14.9814 11.7877 14.8419L37.8114 7.17488C38.285 7.03536 38.782 7.30616 38.9215 7.77973L39.9122 11.1425L12.1736 19.3147L11.1829 15.952Z" fill="black"/>
<path d="M11.1829 15.952C11.0434 15.4784 11.3142 14.9814 11.7877 14.8419L37.8114 7.17488C38.285 7.03536 38.782 7.30616 38.9215 7.77973L39.9122 11.1425L12.1736 19.3147L11.1829 15.952Z" fill="url(#paint0_linear_907_3687)"/>
<path d="M10.2347 21.3806H44V41.0771C44 42.6311 42.7403 43.8909 41.1863 43.8909H13.0485C11.4945 43.8909 10.2347 42.6311 10.2347 41.0771V21.3806Z" fill="white"/>
<path d="M41.5 39.2588C41.5 40.493 40.4989 41.4941 39.2646 41.4941H15.2343C14.0002 41.4941 13 40.493 13 39.2588V23.6152H41.5V39.2588ZM23.6435 36.4248L30.3476 32.5938L23.6435 28.7627V36.4248Z" fill="black"/>
<path d="M41.5 39.2588C41.5 40.493 40.4989 41.4941 39.2646 41.4941H15.2343C14.0002 41.4941 13 40.493 13 39.2588V23.6152H41.5V39.2588ZM23.6435 36.4248L30.3476 32.5938L23.6435 28.7627V36.4248Z" fill="url(#paint1_linear_907_3687)"/>
</g>
</g>
<defs>
<filter id="filter0_d_907_3687" x="-2" y="0" width="56" height="56" filterUnits="userSpaceOnUse" color-interpolation-filters="sRGB">
<feFlood flood-opacity="0" result="BackgroundImageFix"/>
<feColorMatrix in="SourceAlpha" type="matrix" values="0 0 0 0 0 0 0 0 0 0 0 0 0 0 0 0 0 0 127 0" result="hardAlpha"/>
<feOffset dy="4"/>
<feGaussianBlur stdDeviation="2"/>
<feComposite in2="hardAlpha" operator="out"/>
<feColorMatrix type="matrix" values="0 0 0 0 0 0 0 0 0 0 0 0 0 0 0 0 0 0 0.12 0"/>
<feBlend mode="normal" in2="BackgroundImageFix" result="effect1_dropShadow_907_3687"/>
<feBlend mode="normal" in="SourceGraphic" in2="effect1_dropShadow_907_3687" result="shape"/>
</filter>
<filter id="filter1_dd_907_3687" x="0.694885" y="0.68335" width="51.3052" height="55.2075" filterUnits="userSpaceOnUse" color-interpolation-filters="sRGB">
<feFlood flood-opacity="0" result="BackgroundImageFix"/>
<feColorMatrix in="SourceAlpha" type="matrix" values="0 0 0 0 0 0 0 0 0 0 0 0 0 0 0 0 0 0 127 0" result="hardAlpha"/>
<feOffset dy="2"/>
<feGaussianBlur stdDeviation="2"/>
<feComposite in2="hardAlpha" operator="out"/>
<feColorMatrix type="matrix" values="0 0 0 0 0 0 0 0 0 0 0 0 0 0 0 0 0 0 0.07 0"/>
<feBlend mode="normal" in2="BackgroundImageFix" result="effect1_dropShadow_907_3687"/>
<feColorMatrix in="SourceAlpha" type="matrix" values="0 0 0 0 0 0 0 0 0 0 0 0 0 0 0 0 0 0 127 0" result="hardAlpha"/>
<feOffset dy="4"/>
<feGaussianBlur stdDeviation="4"/>
<feComposite in2="hardAlpha" operator="out"/>
<feColorMatrix type="matrix" values="0 0 0 0 0.265385 0 0 0 0 0.265385 0 0 0 0 0.265385 0 0 0 0.12 0"/>
<feBlend mode="normal" in2="effect1_dropShadow_907_3687" result="effect2_dropShadow_907_3687"/>
<feBlend mode="normal" in="SourceGraphic" in2="effect2_dropShadow_907_3687" result="shape"/>
</filter>
<linearGradient id="paint0_linear_907_3687" x1="10.979" y1="15.5643" x2="14.3752" y2="23.1757" gradientUnits="userSpaceOnUse">
<stop stop-color="#2B35AB"/>
<stop offset="0.456731" stop-color="#8A38F5"/>
<stop offset="0.899038" stop-color="#13CBD4"/>
</linearGradient>
<linearGradient id="paint1_linear_907_3687" x1="12.9151" y1="25.5025" x2="27.3796" y2="51.6855" gradientUnits="userSpaceOnUse">
<stop stop-color="#2B35AB"/>
<stop offset="0.456731" stop-color="#8A38F5"/>
<stop offset="0.899038" stop-color="#13CBD4"/>
</linearGradient>
</defs>
</svg>
