<svg width="65" height="65" viewBox="0 0 65 65" fill="none" xmlns="http://www.w3.org/2000/svg">
<g filter="url(#filter0_d_907_3730)">
<g filter="url(#filter1_dd_907_3730)">
<rect x="10.5" y="6.50013" width="43.9998" height="43.9998" rx="5.99997" stroke="white" stroke-width="3.99998"/>
<rect x="12.5" y="8.5" width="40" height="40" rx="3.6" fill="url(#paint0_linear_907_3730)"/>
<path d="M34.2607 20.7265C34.3154 20.5899 34.4477 20.5002 34.5949 20.5002H37.4195C37.6741 20.5002 37.8483 20.7575 37.7537 20.9939L30.8417 38.2738C30.7871 38.4105 30.6547 38.5001 30.5075 38.5001H27.683C27.4283 38.5001 27.2541 38.2429 27.3487 38.0064L34.2607 20.7265Z" fill="white"/>
<path d="M16.6055 29.7554C16.4649 29.6148 16.4649 29.3869 16.6055 29.2463L21.6459 24.2059C21.7134 24.1384 21.805 24.1005 21.9005 24.1005H24.4818C24.8026 24.1005 24.9632 24.4882 24.7364 24.715L20.2051 29.2463C20.0645 29.3869 20.0645 29.6148 20.2052 29.7554L24.7363 34.2857C24.9631 34.5125 24.8025 34.9003 24.4817 34.9003H21.8995C21.804 34.9003 21.7124 34.8623 21.6449 34.7948L16.6055 29.7554Z" fill="white"/>
<path d="M48.4964 29.7554C48.637 29.6148 48.637 29.3869 48.4964 29.2463L43.457 24.2059C43.3894 24.1384 43.2979 24.1005 43.2024 24.1005H40.62C40.2993 24.1005 40.1387 24.4882 40.3655 24.715L44.8967 29.2463C45.0373 29.3869 45.0373 29.6148 44.8967 29.7554L40.3656 34.2857C40.1388 34.5125 40.2994 34.9003 40.6202 34.9003H43.2024C43.2979 34.9003 43.3894 34.8623 43.457 34.7948L48.4964 29.7554Z" fill="white"/>
</g>
</g>
<defs>
<filter id="filter0_d_907_3730" x="4" y="4.50012" width="56.4998" height="56.4999" filterUnits="userSpaceOnUse" color-interpolation-filters="sRGB">
<feFlood flood-opacity="0" result="BackgroundImageFix"/>
<feColorMatrix in="SourceAlpha" type="matrix" values="0 0 0 0 0 0 0 0 0 0 0 0 0 0 0 0 0 0 127 0" result="hardAlpha"/>
<feOffset dy="4"/>
<feGaussianBlur stdDeviation="2"/>
<feComposite in2="hardAlpha" operator="out"/>
<feColorMatrix type="matrix" values="0 0 0 0 0 0 0 0 0 0 0 0 0 0 0 0 0 0 0.12 0"/>
<feBlend mode="normal" in2="BackgroundImageFix" result="effect1_dropShadow_907_3730"/>
<feBlend mode="normal" in="SourceGraphic" in2="effect1_dropShadow_907_3730" result="shape"/>
</filter>
<filter id="filter1_dd_907_3730" x="0.500031" y="0.500122" width="63.9997" height="63.9998" filterUnits="userSpaceOnUse" color-interpolation-filters="sRGB">
<feFlood flood-opacity="0" result="BackgroundImageFix"/>
<feColorMatrix in="SourceAlpha" type="matrix" values="0 0 0 0 0 0 0 0 0 0 0 0 0 0 0 0 0 0 127 0" result="hardAlpha"/>
<feOffset dy="2"/>
<feGaussianBlur stdDeviation="2"/>
<feComposite in2="hardAlpha" operator="out"/>
<feColorMatrix type="matrix" values="0 0 0 0 0 0 0 0 0 0 0 0 0 0 0 0 0 0 0.07 0"/>
<feBlend mode="normal" in2="BackgroundImageFix" result="effect1_dropShadow_907_3730"/>
<feColorMatrix in="SourceAlpha" type="matrix" values="0 0 0 0 0 0 0 0 0 0 0 0 0 0 0 0 0 0 127 0" result="hardAlpha"/>
<feOffset dy="4"/>
<feGaussianBlur stdDeviation="4"/>
<feComposite in2="hardAlpha" operator="out"/>
<feColorMatrix type="matrix" values="0 0 0 0 0.265385 0 0 0 0 0.265385 0 0 0 0 0.265385 0 0 0 0.12 0"/>
<feBlend mode="normal" in2="effect1_dropShadow_907_3730" result="effect2_dropShadow_907_3730"/>
<feBlend mode="normal" in="SourceGraphic" in2="effect2_dropShadow_907_3730" result="shape"/>
</filter>
<linearGradient id="paint0_linear_907_3730" x1="12.381" y1="12.7222" x2="50.302" y2="55.7842" gradientUnits="userSpaceOnUse">
<stop stop-color="#2B35AB"/>
<stop offset="0.456731" stop-color="#8A38F5"/>
<stop offset="0.899038" stop-color="#13CBD4"/>
</linearGradient>
</defs>
</svg>
