<svg width="36" height="20" viewBox="0 0 36 20" fill="none" xmlns="http://www.w3.org/2000/svg">
<path d="M10.2224 14.3022C10.1458 14.6533 10.4132 14.9854 10.7725 14.9854H19.5996C19.9589 14.9854 20.2263 15.3174 20.1496 15.6685L19.3047 19.5376C19.2483 19.7961 19.0193 19.9805 18.7547 19.9805H9.25194C9.08152 19.9805 8.92027 19.9033 8.81339 19.7705L6.14905 16.4617C5.81581 16.0478 5.14746 16.2834 5.14746 16.8148V19.3784C5.14746 19.6893 4.89538 19.9414 4.58442 19.9414H0.597222C0.286262 19.9414 0.0341797 19.6893 0.0341797 19.3784V15.3921C0.0341797 15.0812 0.286262 14.8291 0.597222 14.8291H4.54077C4.80545 14.8291 5.03439 14.6448 5.09085 14.3862L7.64418 2.692C7.67158 2.56648 7.74108 2.45412 7.84115 2.37355L10.6345 0.124487C10.7345 0.0439253 10.8591 0 10.9876 0H12.6464C13.0058 0 13.2732 0.332082 13.1965 0.683167L10.2224 14.3022ZM28.9437 3.49654C29.277 3.91036 29.9453 3.67471 29.9453 3.14339V0.563042C29.9453 0.252083 30.1974 0 30.5084 0H34.4956C34.8065 0 35.0586 0.252083 35.0586 0.563042V4.55024C35.0586 4.8612 34.8065 5.11328 34.4956 5.11328H30.5783C30.3137 5.11328 30.0847 5.2976 30.0282 5.55615L29.0596 9.99023L27.9678 14.9854L27.4652 17.2894C27.4378 17.4149 27.3683 17.5273 27.2682 17.6079L24.4759 19.856C24.3758 19.9365 24.2513 19.9805 24.1228 19.9805H22.4639C22.1046 19.9805 21.8372 19.6484 21.9138 19.2973L24.8879 5.67828C24.9646 5.3272 24.6972 4.99512 24.3378 4.99512H15.5108C15.1514 4.99512 14.884 4.66304 14.9607 4.31195L15.8056 0.442917C15.8621 0.18434 16.091 0 16.3557 0H25.8584C26.0288 0 26.1901 0.077174 26.297 0.209893L28.9437 3.49654Z" fill="white"/>
</svg>
